SplineFontDB: 3.0
FontName: Nobile002
FullName: Nobile002
FamilyName: Nobile002
Weight: Light
Copyright: Copyright (c) 2007 by vernon adams. All rights reserved.
Version: 1.000;PS 001.000;hotconv 1.0.38
ItalicAngle: 0
UnderlinePosition: -292
UnderlineWidth: 40
Ascent: 1638
Descent: 410
LayerCount: 3
Layer: 0 1 "Back"  1
Layer: 1 0 "Fore"  0
Layer: 2 0 "dump"  1
NeedsXUIDChange: 1
XUID: [1021 23 736606225 13774696]
FSType: 0
OS2Version: 2
OS2_WeightWidthSlopeOnly: 0
OS2_UseTypoMetrics: 1
CreationTime: 1248129682
ModificationTime: 1273349154
PfmFamily: 17
TTFWeight: 250
TTFWidth: 5
LineGap: 117
VLineGap: 0
Panose: 2 0 0 0 0 0 0 0 0 0
OS2TypoAscent: -121
OS2TypoAOffset: 1
OS2TypoDescent: -47
OS2TypoDOffset: 1
OS2TypoLinegap: 117
OS2WinAscent: -1075
OS2WinAOffset: 1
OS2WinDescent: -4
OS2WinDOffset: 1
HheadAscent: -1647
HheadAOffset: 1
HheadDescent: 84
HheadDOffset: 1
OS2SubXSize: 1434
OS2SubYSize: 1331
OS2SubXOff: 0
OS2SubYOff: 287
OS2SupXSize: 1434
OS2SupYSize: 1331
OS2SupXOff: 0
OS2SupYOff: 977
OS2StrikeYSize: 102
OS2StrikeYPos: 512
OS2Vendor: 'pyrs'
OS2CodePages: 00000001.00000000
OS2UnicodeRanges: 00000001.00000000.00000000.00000000
Lookup: 258 0 0 "'kern' Horizontal Kerning lookup 0"  {"'kern' Horizontal Kerning lookup 0-1"  } ['kern' ('DFLT' <'dflt' > 'cyrl' <'dflt' > 'grek' <'dflt' > 'latn' <'dflt' > ) ]
DEI: 91125
TtTable: prep
PUSHW_1
 511
SCANCTRL
PUSHB_1
 1
SCANTYPE
SVTCA[y-axis]
MPPEM
PUSHB_1
 8
LT
IF
PUSHB_2
 1
 1
INSTCTRL
EIF
PUSHB_2
 70
 6
CALL
IF
POP
PUSHB_1
 16
EIF
MPPEM
PUSHB_1
 20
GT
IF
POP
PUSHB_1
 128
EIF
SCVTCI
PUSHB_1
 6
CALL
NOT
IF
SVTCA[y-axis]
PUSHB_1
 5
DUP
RCVT
PUSHB_1
 3
CALL
WCVTP
PUSHB_1
 10
DUP
RCVT
PUSHW_3
 5
 265
 2
CALL
PUSHB_1
 3
CALL
WCVTP
PUSHB_1
 9
DUP
RCVT
PUSHB_3
 10
 65
 2
CALL
PUSHB_1
 3
CALL
WCVTP
PUSHB_1
 8
DUP
RCVT
PUSHB_3
 9
 51
 2
CALL
PUSHB_1
 3
CALL
WCVTP
PUSHB_1
 7
DUP
RCVT
PUSHB_3
 8
 36
 2
CALL
PUSHB_1
 3
CALL
WCVTP
PUSHB_1
 6
DUP
RCVT
PUSHB_3
 7
 22
 2
CALL
PUSHB_1
 3
CALL
WCVTP
PUSHB_1
 11
DUP
RCVT
PUSHB_3
 5
 135

StartChar: exclam
Encoding: 33 33 4
Width: 886
GlyphClass: 2
Flags: W
HStem: -16 202<293 502> 1559 20G<283.475 539.743>
VStem: 283 256.743<1279.81 1577.58> 293 209<-16 186> 311 172<399 696.766>
LayerCount: 3
Fore
SplineSet
502 186 m 1xd0
 502 -16 l 1
 293 -16 l 1
 293 186 l 1
 502 186 l 1xd0
483 399 m 5xc8
 311 399 l 5xc8
 283 1579 l 1
 539.743 1577.58 l 1xe0
 483 399 l 5xc8
EndSplineSet
EndChar

StartChar: numbersign
Encoding: 35 35 5
Width: 1615
GlyphClass: 2
Flags: W
HStem: 561 123<250 416 569 743 895 1071> 905 125<278 453 606 778 934 1094>
DStem2: 383 295 524 295 0.11269 0.99363<15.8893 268.024 407.482 614.003 755.448 1020.5> 711 295 852 295 0.11097 0.993824<15.6468 267.908 407.016 613.667 755.207 1018.18>
LayerCount: 3
Fore
SplineSet
743 561 m 1
 557 561 l 1
 524 295 l 1
 383 295 l 1
 416 561 l 1
 250 561 l 1
 250 684 l 1
 426 684 l 1
 453 905 l 1
 278 905 l 1
 278 1030 l 1
 467 1030 l 1
 498 1309 l 1
 637 1309 l 1
 606 1030 l 1
 795 1030 l 1
 823 1307 l 1
 965 1307 l 1
 934 1030 l 1
 1094 1030 l 1
 1094 905 l 1
 922 905 l 1
 895 684 l 1
 1071 684 l 1
 1071 561 l 1
 883 561 l 1
 852 295 l 1
 711 295 l 1
 743 561 l 1
569 684 m 1
 752 684 l 1
 778 905 l 1
 596 905 l 1
 569 684 l 1
EndSplineSet
EndChar

StartChar: dollar
Encoding: 36 36 6
Width: 1052
GlyphClass: 2
Flags: W
HStem: -23 150<325.949 705.663> 1042 148<352.785 723.435>
VStem: 130 160<793.513 984.394> 456 81<-159 190.704> 517 74<979.296 1329> 790 172<202.144 428.609>
LayerCount: 3
Fore
SplineSet
456 -159 m 5xf4
 517 1329 l 5
 591 1329 l 5xec
 537 -159 l 5
 456 -159 l 5xf4
140 100 m 9
 204 245 l 1
 292 169 427 127 511 127 c 0
 660 127 790 178 790 314 c 0
 790 430 707 470 599 505 c 2
 425 562 l 2
 175 644 130 740 130 891 c 0
 130 1011 224 1190 527 1190 c 0
 691 1190 864 1106 909 1067 c 1
 847 924 l 1
 758 994 648 1042 538 1042 c 0
 344 1042 290 964 290 880 c 0
 290 820 319 785 454 737 c 2
 622 678 l 2
 919 574 962 461 962 309 c 0
 962 53 724 -23 524 -23 c 0
 381 -23 204 46 140 100 c 9
EndSplineSet
EndChar

StartChar: percent
Encoding: 37 37 7
Width: 1980
GlyphClass: 2
Flags: W
HStem: -23 111<1213.43 1458.51> 698 101<1216.67 1458.39> 762 104<332.161 568.929> 1481 98<334.363 572.308>
VStem: 127 129<948.326 1396.16> 649 121<955.225 1397.01> 1018 125<169.126 615.261> 1534 121<170.628 618.707>
DStem2: 498 -51 604 -92 0.363393 0.931636<0.322532 1834.62>
LayerCount: 3
Fore
SplineSet
1331 88 m 4xdf
 1493.4 88 1534 234.685 1534 356 c 4
 1534 497.837 1532.58 698 1337 698 c 4
 1176 698 1143 550 1143 392 c 4
 1143 225.169 1180.6 88 1331 88 c 4xdf
649 1176 m 4
 649 1406 570 1481 451 1481 c 4
 321 1481 256 1379 256 1176 c 4
 256 944 334 866 451 866 c 4xbf
 583 866 649 969 649 1176 c 4
498 -51 m 5
 1165 1659 l 5
 1278 1614 l 5
 604 -92 l 5
 498 -51 l 5
1354 -23 m 4
 1085.2 -23 1018 199.356 1018 371 c 4
 1018 679 1143 799 1330 799 c 4xdf
 1590 799 1655 581 1655 397 c 4
 1655 61 1475 -23 1354 -23 c 4
127 1155 m 4
 127 1460 254 1579 444 1579 c 4
 705 1579 770 1361 770 1178 c 4
 770 994 706 762 451 762 c 4xbf
 192 762 127 1004 127 1155 c 4
EndSplineSet
EndChar

StartChar: quotesingle
Encoding: 39 39 8
Width: 538
GlyphClass: 2
Flags: W
HStem: 1188 63<165.957 198.384> 1374 201<137 264>
VStem: 137 228<1374 1575>
LayerCount: 3
Fore
SplineSet
137 1374 m 1
 137 1575 l 1
 352 1575 l 1
 360.667 1531 365 1477 365 1413 c 0
 365 1278 308.952 1226.38 174 1188 c 1
 169.603 1193.86 146.36 1240.08 137 1251 c 1
 227.859 1282.45 249.312 1326.26 264 1374 c 1
 137 1374 l 1
EndSplineSet
EndChar

StartChar: parenleft
Encoding: 40 40 9
Width: 864
GlyphClass: 2
Flags: W
HStem: 1574.97 20G<526.357 591.777>
VStem: 193 186<342.37 1028.77>
LayerCount: 3
Fore
SplineSet
379 694 m 4
 379 254.851 559.058 -16.3586 664.762 -97.1912 c 5
 582 -205 l 5
 468.733 -134.208 193 154.827 193 696 c 4
 193 1253.52 482.584 1532.43 570.131 1594.97 c 5
 680.978 1492.55 l 5
 570.699 1398.03 379 1123.78 379 694 c 4
EndSplineSet
EndChar

StartChar: parenright
Encoding: 41 41 10
Width: 864
GlyphClass: 2
Flags: W
HStem: 1579 20G<177.6 230.591>
VStem: 395 187<362.146 1046.21>
LayerCount: 3
Fore
SplineSet
395 694 m 4
 395 1128.67 221.92 1398.44 109.716 1490.84 c 5
 193 1599 l 5
 268.182 1552.01 582 1273.32 582 710.5 c 4
 582 161.2 331.284 -109.265 193 -205 c 5
 93.0137 -98.5629 l 5
 202.798 -4.46175 395 267.021 395 694 c 4
EndSplineSet
EndChar

StartChar: asterisk
Encoding: 42 42 11
Width: 933
GlyphClass: 2
Flags: W
HStem: 1145 92<25 334 506 815>
DStem2: 164 872 266 815 0.4956 0.868551<1.04376 316.218> 506 1145 420 1090 0.4956 -0.868551<5.14873 320.323>
LayerCount: 3
Fore
SplineSet
420 1292 m 1
 559 1567 l 1
 662 1509 l 1
 504 1237 l 1
 815 1237 l 1
 815 1145 l 1
 506 1145 l 1
 676 872 l 1
 574 815 l 1
 420 1090 l 1
 266 815 l 1
 164 872 l 1
 334 1145 l 1
 25 1145 l 1
 25 1237 l 1
 336 1237 l 1
 178 1509 l 1
 281 1567 l 1
 420 1292 l 1
EndSplineSet
EndChar

StartChar: plus
Encoding: 43 43 12
Width: 1003
GlyphClass: 2
Flags: W
HStem: 518 133<66 379 520 834>
VStem: 379 141<174 518 651 995>
LayerCount: 3
Fore
SplineSet
834 518 m 1
 520 518 l 1
 520 174 l 1
 379 174 l 1
 379 518 l 1
 66 518 l 1
 66 651 l 1
 379 651 l 1
 379 995 l 1
 520 995 l 1
 520 651 l 1
 834 651 l 1
 834 518 l 1
EndSplineSet
EndChar

StartChar: comma
Encoding: 44 44 13
Width: 497
GlyphClass: 2
Flags: W
HStem: -201 64<157.668 190.271> -12 196<127 254>
VStem: 127 227<-12 184>
LayerCount: 3
Fore
SplineSet
127 -12 m 1
 127 184 l 1
 342 184 l 1
 350 142 354 88.8333 354 24.5 c 0
 354 -110.8 301.384 -162.496 166 -201 c 1
 161.796 -194.693 136.628 -148.233 127 -137 c 1
 193.504 -113.979 230.723 -83.2008 254 -12 c 1
 127 -12 l 1
EndSplineSet
EndChar

StartChar: hyphen
Encoding: 45 45 14
Width: 864
GlyphClass: 2
Flags: W
HStem: 508 131<94 682>
VStem: 94 588<508 639>
LayerCount: 3
Fore
SplineSet
682 508 m 1
 94 508 l 1
 94 639 l 1
 682 639 l 1
 682 508 l 1
EndSplineSet
EndChar

StartChar: period
Encoding: 46 46 15
Width: 518
GlyphClass: 2
Flags: W
HStem: -17 230<156.914 331.618>
VStem: 133 220<6.29114 190.003>
LayerCount: 3
Fore
SplineSet
245 213 m 0
 310 213 353 161 353 98 c 0
 353 36 310 -17 245 -17 c 0
 178 -17 133 37 133 98 c 0
 133 159 178 213 245 213 c 0
EndSplineSet
EndChar

StartChar: slash
Encoding: 47 47 16
Width: 1507
GlyphClass: 2
Flags: W
DStem2: 322 -168 483 -168 0.317576 0.948233<51.1297 2002.67>
LayerCount: 3
Fore
SplineSet
322 -168 m 1
 958 1731 l 1
 1112 1731 l 1
 483 -168 l 1
 322 -168 l 1
EndSplineSet
EndChar

StartChar: zero
Encoding: 48 48 17
Width: 1376
GlyphClass: 2
Flags: W
HStem: -31 142<493.952 866.929> 1069 141<491.627 873.464>
VStem: 115 186<329.07 851.901> 1067 186<333.169 853.643>
LayerCount: 3
Fore
SplineSet
682 1069 m 4
 377.2 1069 301 825.662 301 592 c 4
 301 178.476 529.6 111 682 111 c 4
 990 111 1067 359.875 1067 606 c 4
 1067 810.229 996.157 1069 682 1069 c 4
1253 590 m 4
 1253 248.404 1063.66 -31 682 -31 c 4
 228.4 -31 115 352.231 115 590 c 4
 115 940.509 303.448 1210 682.5 1210 c 4
 1138.9 1210 1253 835.771 1253 590 c 4
EndSplineSet
EndChar

StartChar: one
Encoding: 49 49 18
Width: 566
GlyphClass: 2
Flags: W
HStem: 0 21G<274 461>
VStem: 274 187<0 1057>
DStem2: 311 1202 274 1057 0.928261 0.371929<-319.469 -88.2754>
LayerCount: 3
Fore
SplineSet
274 0 m 1
 274 1057 l 1
 61 967 l 1
 14 1083 l 1
 311 1202 l 1
 461 1169 l 1
 461 0 l 1
 274 0 l 1
EndSplineSet
EndChar

StartChar: two
Encoding: 50 50 19
Width: 1036
GlyphClass: 2
Flags: W
HStem: 0 152<304 867> 1051 147<196.853 645.448>
VStem: 724 178<688.331 978.307>
DStem2: 290 320 304 152 0.760231 0.649652<-98.4983 54.5503 393.745 574.217>
LayerCount: 3
Fore
SplineSet
484 1198 m 0
 814 1198 902 1003 902 836 c 0
 902 739 874 613 690 458 c 0
 545 336 436 252 366 200 c 1
 304 152 l 1
 867 152 l 1
 867 0 l 1
 85 0 l 1
 85 141 l 1
 146 198 214 257 290 320 c 2
 470 470 l 1
 678 640 724 734 724 844 c 0
 724 982 637 1051 462 1051 c 0
 333 1051 202 1012 152 990 c 1
 107 969 l 1
 107 1124 l 1
 214 1174 352 1198 484 1198 c 0
EndSplineSet
EndChar

StartChar: three
Encoding: 51 51 20
Width: 1058
GlyphClass: 2
Flags: W
HStem: -199 140<147.274 656.177> -142 152<61 217.332> 1019 130<91 307.494> 1063 143<178.295 645.175>
VStem: 728 166<708.472 983.611> 753 180<32.5704 335.283>
LayerCount: 3
Fore
SplineSet
442 -59 m 0x84
 638 -59 753 0 753 186 c 0x84
 753 351 641 446 417 471 c 1
 417 614 l 1
 566 614 728 660 728 842 c 2
 728 862 l 2
 728 983 661 1063 431 1063 c 0x98
 313 1063 185 1036 136 1019 c 1
 91 1019 l 1
 91 1149 l 1
 142 1149 l 1x28
 152 1152 288 1206 446 1206 c 0
 635 1206 894 1136 894 858 c 0x18
 894 594 665 547 575 547 c 1
 899 498 933 267 933 172 c 0
 933 -83 718 -199 442 -199 c 0x94
 305 -199 164 -163 110 -142 c 1
 61 -142 l 1
 61 10 l 1x44
 130 -21 299 -59 442 -59 c 0x84
EndSplineSet
EndChar

StartChar: four
Encoding: 52 52 21
Width: 1160
GlyphClass: 2
Flags: W
HStem: 68 137<243 753 913 1110>
VStem: 753 160<-258 68 207 1004>
LayerCount: 3
Fore
SplineSet
762 1208 m 1
 913 1169 l 1
 913 207 l 1
 1110 207 l 1
 1110 68 l 1
 913 68 l 1
 913 -258 l 1
 753 -287 l 1
 753 68 l 1
 106 68 l 1
 78 205 l 1
 762 1208 l 1
243 205 m 1
 753 205 l 1
 753 1004 l 1
 575 668 l 1
 392 401 281 247 243 205 c 1
EndSplineSet
EndChar

StartChar: five
Encoding: 53 53 22
Width: 1072
GlyphClass: 2
Flags: W
HStem: -207 151<185.083 657.074> 557 136<331.35 682.61> 1018 151<271 861>
VStem: 146 125<612 1018> 798.996 183.339<75.4118 431.504>
LayerCount: 3
Fore
SplineSet
271 612 m 1
 339 669 464 693 531 693 c 0
 799 693 982.335 519 982.335 243 c 0
 982.335 -35 762 -207 451 -207 c 0
 305 -207 137 -159 88 -137 c 1
 132 9 l 1
 204 -24 311 -56 453 -56 c 0
 662 -56 798.996 36 798.996 239 c 0
 798.996 438 705 557 513 557 c 0
 418 557 313 526 214 478 c 1
 197 489 174 515 146 547 c 1
 146 1169 l 1
 861 1169 l 1
 861 1018 l 1
 271 1018 l 1
 271 612 l 1
EndSplineSet
Layer: 2
SplineSet
90 246 m 4
 90 -21 189 -219 438 -219 c 4
 687 -219 786 -22 786 246 c 4
 786 513 687 715 438 715 c 4
 189 715 90 514 90 246 c 4
-92 246 m 4
 -92 575 75 854 438 854 c 4
 801 854 969 576 969 246 c 4
 969 -85 800 -356 438 -356 c 4
 76 -356 -92 -85 -92 246 c 4
EndSplineSet
EndChar

StartChar: six
Encoding: 54 54 23
Width: 1234
GlyphClass: 2
Flags: W
HStem: -113 142<448.155 791.159> 700 136<447.903 818.699> 1217 145<744.497 836.251>
VStem: 117 178<202.164 574.282> 946 176<188.508 565.192>
LayerCount: 3
Fore
SplineSet
946 378 m 0
 946 225 867 29 622 29 c 0
 346 29 295 263 295 444 c 0
 295 484 296 535 301 566 c 1
 324 593 473 700 656 700 c 0
 803 700 946 610 946 378 c 0
117 468 m 0
 117 120 284 -113 622 -113 c 0
 953 -113 1122 116 1122 378 c 0
 1122 643 949 836 656 836 c 0
 513 836 396 788 315 692 c 1
 374 1020 664 1173 875 1217 c 1
 832 1362 l 1
 455 1275 117 980 117 468 c 0
EndSplineSet
Layer: 2
SplineSet
640 29 m 4
 885 29 946 193 946 346 c 6
 946 410 l 6
 946 642 798 700 651 700 c 4
 468 700 341 593 318 566 c 5
 318 551 l 5
 313 520 295 484 295 444 c 4
 295 263 364 29 640 29 c 4
645 -113 m 4
 307 -113 117 127 117 440 c 6
 117 508 l 6
 117 1020 455 1275 832 1362 c 5
 875 1217 l 5
 664 1173 420 1067 324 692 c 5
 405 788 517 836 660 836 c 4
 953 836 1122 640 1122 375 c 4
 1122 113 976 -113 645 -113 c 4
EndSplineSet
EndChar

StartChar: seven
Encoding: 55 55 24
Width: 995
GlyphClass: 2
Flags: W
HStem: 1034 135<67 774>
DStem2: 178 -160 346 -236 0.431679 0.902027<3.96807 1334.3>
LayerCount: 3
Fore
SplineSet
903 1169 m 1
 960 1047 l 1
 346 -236 l 1
 178 -160 l 1
 774 1034 l 1
 67 1034 l 1
 67 1169 l 1
 903 1169 l 1
EndSplineSet
EndChar

StartChar: eight
Encoding: 56 56 25
Width: 1230
GlyphClass: 2
Flags: W
HStem: -139 139<406.641 823.359> 1208 135<422.477 807.523>
VStem: 128 178<97.8828 437.852> 159 167<804.026 1116.45> 904 167<804.026 1116.45> 924 178<97.8828 437.852>
LayerCount: 3
Fore
SplineSet
615 1343 m 0xd0
 878 1343 1071 1217 1071 975 c 0xd8
 1071 775 939 681 820 641 c 1
 982 590 1102 452 1102 238 c 0
 1102 -23 878 -139 615 -139 c 0
 352 -139 128 -23 128 238 c 0xe4
 128 452 248 590 410 641 c 1
 291 681 159 775 159 975 c 0
 159 1217 352 1343 615 1343 c 0xd0
615 0 m 0
 853 0 924 104 924 260 c 0
 924 447 821 555 615 582 c 1
 409 555 306 447 306 260 c 0xe4
 306 104 377 0 615 0 c 0
615 698 m 1
 841 725 904 814 904 973 c 0
 904 1161 757 1208 615 1208 c 0
 473 1208 326 1161 326 973 c 0xd8
 326 814 389 725 615 698 c 1
EndSplineSet
EndChar

StartChar: nine
Encoding: 57 57 26
Width: 1225
GlyphClass: 2
Flags: W
HStem: -283 146<379.778 488.806> 244 135<398.819 764.029> 1051 141<410.965 750.327>
VStem: 95 172<523.044 900.778> 923 178<512.25 857.031>
LayerCount: 3
Fore
SplineSet
267 702 m 0
 267 536 358 379 547 379 c 0
 759 379 876 488 900 512 c 1
 900 528 l 1
 906 563 923 599 923 636 c 0
 923 813 853 1051 574 1051 c 0
 328 1051 267 850 267 702 c 0
572 1192 m 0
 909 1192 1101 951 1101 639 c 2
 1101 571 l 2
 1101 59 761 -196 384 -283 c 1
 341 -137 l 1
 552 -93 800 14 892 387 c 1
 811 292 700 244 558 244 c 0
 276 244 95 420 95 710 c 0
 95 989 266 1192 572 1192 c 0
EndSplineSet
EndChar

StartChar: colon
Encoding: 58 58 27
Width: 518
GlyphClass: 2
Flags: W
HStem: 12 197<139 348> 651 197<139 348>
VStem: 139 209<12 209 651 848>
LayerCount: 3
Fore
SplineSet
139 848 m 1
 348 848 l 1
 348 651 l 1
 139 651 l 1
 139 848 l 1
139 209 m 1
 348 209 l 1
 348 12 l 1
 139 12 l 1
 139 209 l 1
EndSplineSet
EndChar

StartChar: semicolon
Encoding: 59 59 28
Width: 538
GlyphClass: 2
Flags: W
HStem: -186 61<166.387 198.776> 2 197<137 264> 633 221<129 356>
VStem: 129 227<7.13183 199 633 854>
LayerCount: 3
Fore
SplineSet
137 2 m 1
 137 199 l 1
 352 199 l 1
 360.667 155 365 101 365 37 c 0
 365 -96.8 311.328 -147.298 174 -186 c 1
 169.77 -180.359 147.993 -135.492 139 -125 c 1
 208.624 -100.427 242.192 -65.9911 264 2 c 1
 137 2 l 1
129 854 m 1
 356 854 l 1
 356 633 l 1
 129 633 l 1
 129 854 l 1
EndSplineSet
EndChar

StartChar: question
Encoding: 63 63 29
Width: 1232
GlyphClass: 2
Flags: W
HStem: -40 209<283.588 453.073> 1352 153<299.874 711.477>
VStem: 264 209<-20.0922 149.91> 287 180<292 616.897> 801 200<972.183 1266.34>
LayerCount: 3
Fore
SplineSet
467 601 m 5xd8
 467 292 l 5
 287 292 l 5
 287 663 l 5
 651 841 801 922 801 1123 c 4
 801 1290 695 1352 519 1352 c 4
 384 1352 287 1307 221 1266 c 5
 164 1395 l 5
 226 1437 354 1505 538 1505 c 4
 777 1505 1001 1406 1001 1142 c 4
 1001 806 696 683 467 601 c 5xd8
368 -40 m 4
 312 -40 264 6 264 65 c 4
 264 123 311 169 368 169 c 4
 425 169 473 123 473 64 c 4xe8
 473 4 424 -40 368 -40 c 4
EndSplineSet
EndChar

StartChar: at
Encoding: 64 64 30
Width: 1992
GlyphClass: 2
Flags: W
HStem: -129 133<626.086 1204.7> 199 131<640.93 952.724 1315 1450.9> 987 109<994.98 1167> 1008 120<799.815 1164.23> 1317 133<681.798 1218.4>
VStem: 68 159<356.163 841.018> 408 155<408.443 764.049> 1135 180<317 497.969> 1155 160<317.567 498 947.455 987> 1569 160<494.464 1000.64>
LayerCount: 3
Fore
SplineSet
1167 987 m 1xee40
 1156 987 1076 1008 991 1008 c 0xde40
 758 1008 563 827 563 573 c 0
 563 411 638 330 788 330 c 0
 988 330 1106 470 1141 750 c 1
 1167 987 l 1xee40
1491 68 m 1
 1368 -48 1221 -129 903 -129 c 0
 313 -129 68 239 68 574 c 0
 68 1144 496 1450 920 1450 c 0
 1358 1450 1729 1229 1729 756 c 0
 1729 319 1449 199 1255 199 c 0
 1159 199 1135 258 1135 316 c 0xef40
 1135 349 1142 409 1155 496 c 1
 1155 498 l 1
 1140 406 1026 199 772 199 c 0
 541 199 408 350 408 590 c 0
 408 851 650 1128 975 1128 c 0xdec0
 1055 1128 1241 1096 1260 1096 c 1
 1315 987 l 1xeec0
 1315 317 l 1xef40
 1467 317 1569 427 1569 758 c 0
 1569 1205 1231 1317 926 1317 c 0
 525 1317 227 1005 227 574 c 0
 227 211 517 4 913 4 c 0
 1177 4 1348 100 1392 142 c 1
 1392 158 l 1
 1435 110 1479 80 1491 68 c 1
EndSplineSet
EndChar

StartChar: A
Encoding: 65 65 31
Width: 1388
GlyphClass: 2
Flags: W
HStem: 0 21G<13 229.901 1150.1 1367> 383 102<366 1014> 1559 20G<526.414 853.586>
DStem2: 13 0 224 0 0.312797 0.94982<66.0002 465.127 571.08 1400.45> 1367 0 1014 485 0.312797 -0.94982<-1662.14 -571.08 -465.127 -465.127>
LayerCount: 3
Fore
SplineSet
533 1579 m 5
 847 1579 l 5
 1367 0 l 5
 1156 0 l 5
 1043 383 l 5
 337 383 l 5
 224 0 l 5
 13 0 l 5
 533 1579 l 5
366 485 m 5
 1014 485 l 5
 690 1527 l 5
 366 485 l 5
EndSplineSet
EndChar

StartChar: B
Encoding: 66 66 32
Width: 1364
GlyphClass: 2
Flags: W
HStem: 0 143<328 922.164> 786 129<328 859.191> 1436 143<328 881.755>
VStem: 134 194<143 786 915 1436> 1027 165<1024.96 1331.78> 1092 182<286.813 643.801>
LayerCount: 3
Fore
SplineSet
1027 1188 m 0xf8
 1027 1363 928 1436 519 1436 c 2
 328 1436 l 1
 328 915 l 1
 607 915 l 2
 960 915 1027 1024 1027 1188 c 0xf8
574 143 m 2
 934 143 1092 208 1092 466 c 0xf4
 1092 705 943 786 611 786 c 2
 328 786 l 1
 328 143 l 1
 574 143 l 2
867 862 m 1
 1227 820 1274 586 1274 434 c 0xf4
 1274 87 960 0 574 0 c 2
 134 0 l 1
 134 1579 l 1
 515 1579 l 2
 1094 1579 1192 1423 1192 1188 c 0xf8
 1192 1068 1160 906 867 862 c 1
EndSplineSet
EndChar

StartChar: C
Encoding: 67 67 33
Width: 1267
GlyphClass: 2
Flags: W
HStem: -41 152<603.025 1050.26> 1346 21G<1121 1170.97> 1458 152<590.598 1047.78>
VStem: 129 201<431.898 1132.76>
LayerCount: 3
Fore
SplineSet
1142 199 m 1
 1211 82 l 1
 1114 6 951 -41 789 -41 c 0
 261 -41 129 382 129 788 c 0
 129 1503 537 1610 809 1610 c 0
 969 1610 1137 1540 1196 1492 c 1
 1167 1346 l 1
 1075 1417 963 1458 809 1458 c 0
 447 1458 330 1191 330 788 c 0
 330 267 526 111 819 111 c 0
 969 111 1106 173 1142 199 c 1
EndSplineSet
EndChar

StartChar: D
Encoding: 68 68 34
Width: 1441
GlyphClass: 2
Flags: W
HStem: 0 143<323 888.946> 1436 143<323 892.824>
VStem: 129 194<143 1436> 1140 201<442.441 1139.36>
LayerCount: 3
Fore
SplineSet
1140 789 m 0
 1140 1173 1039 1436 682 1436 c 2
 323 1436 l 1
 323 143 l 1
 682 143 l 2
 1038 143 1140 404 1140 789 c 0
682 1579 m 2
 1139 1579 1341 1292 1341 788 c 0
 1341 263 1121 0 682 0 c 2
 129 0 l 1
 129 1579 l 1
 682 1579 l 2
EndSplineSet
EndChar

StartChar: E
Encoding: 69 69 35
Width: 1172
GlyphClass: 2
Flags: W
HStem: 0 143<323 1112> 776 115<323 1001> 1436 143<323 1099>
VStem: 129 194<143 776 891 1436>
LayerCount: 3
Fore
SplineSet
1112 0 m 1
 129 0 l 1
 129 1579 l 1
 1099 1579 l 1
 1099 1436 l 1
 323 1436 l 1
 323 891 l 1
 1001 891 l 1
 1001 776 l 1
 323 776 l 1
 323 143 l 1
 1112 143 l 1
 1112 0 l 1
EndSplineSet
EndChar

StartChar: F
Encoding: 70 70 36
Width: 1100
GlyphClass: 2
Flags: W
HStem: 0 21G<129 325> 762 117<325 989> 1436 143<325 1050>
VStem: 129 196<0 762 879 1436>
LayerCount: 3
Fore
SplineSet
325 762 m 5
 325 0 l 5
 129 0 l 5
 129 1579 l 5
 1050 1579 l 5
 1050 1436 l 5
 325 1436 l 5
 325 879 l 5
 989 879 l 5
 989 762 l 5
 325 762 l 5
EndSplineSet
EndChar

StartChar: G
Encoding: 71 71 37
Width: 1462
GlyphClass: 2
Flags: W
HStem: -41 152<590.809 1026.92> 0 21G<1275.02 1368> 684 127<781 1183> 1458 152<584.637 1042.3>
VStem: 129 201<447.22 1135.33> 1183 185<244.466 684> 1280 88<0 57.6145>
LayerCount: 3
Fore
SplineSet
760 -41 m 0xba
 363 -41 129 291 129 786 c 0
 129 1500 534 1610 803 1610 c 0
 963 1610 1120 1557 1233 1468 c 1
 1204 1324 l 1
 1086 1410 959 1458 801 1458 c 0
 436 1458 330 1180 330 782 c 0
 330 408 425 111 807 111 c 0
 1024 111 1183 201 1183 399 c 1
 1183 684 l 1xbc
 781 684 l 1
 781 811 l 1
 1368 811 l 1
 1368 0 l 1
 1280 0 l 1x7a
 1227 213 l 1
 1182 27 976 -41 760 -41 c 0xba
EndSplineSet
Layer: 2
SplineSet
1142 199 m 5
 1211 82 l 5
 1114 6 951 -41 789 -41 c 4
 261 -41 129 382 129 788 c 4
 129 1503 537 1610 809 1610 c 4
 969 1610 1137 1540 1196 1492 c 5
 1167 1346 l 5
 1075 1417 963 1458 809 1458 c 4
 447 1458 330 1191 330 788 c 4
 330 267 526 111 819 111 c 4
 969 111 1106 173 1142 199 c 5
EndSplineSet
EndChar

StartChar: H
Encoding: 72 72 38
Width: 1472
GlyphClass: 2
Flags: W
HStem: 0 21G<126 320 1152 1346> 764 115<320 1152> 1559 20G<126 320 1152 1346>
VStem: 126 194<0 764 879 1579> 1152 194<0 764 879 1579>
LayerCount: 3
Fore
SplineSet
1152 0 m 1
 1152 764 l 1
 320 764 l 1
 320 0 l 1
 126 0 l 1
 126 1579 l 1
 320 1579 l 1
 320 879 l 1
 1152 879 l 1
 1152 1579 l 1
 1346 1579 l 1
 1346 0 l 1
 1152 0 l 1
EndSplineSet
EndChar

StartChar: I
Encoding: 73 73 39
Width: 693
GlyphClass: 2
Flags: W
HStem: 0 102<46 250 433 639> 1483 96<46 250 433 639>
VStem: 250 183<102 1483>
LayerCount: 3
Fore
SplineSet
46 102 m 1
 250 102 l 1
 250 1483 l 1
 46 1483 l 1
 46 1579 l 1
 639 1579 l 1
 639 1483 l 1
 433 1483 l 1
 433 102 l 1
 639 102 l 1
 639 0 l 1
 46 0 l 1
 46 102 l 1
EndSplineSet
EndChar

StartChar: J
Encoding: 74 74 40
Width: 662
GlyphClass: 2
Flags: W
HStem: -90 125<36 154.312> 1559 20G<311 503>
VStem: 311 192<176.104 1579>
LayerCount: 3
Fore
SplineSet
36 -90 m 1
 -15 35 l 1
 92 51 167 77 210 114 c 0
 291 181 311 238 311 479 c 2
 311 1579 l 1
 503 1579 l 1
 503 514 l 2
 503 264 481 127 360 10 c 0
 272 -74 125 -90 36 -90 c 1
EndSplineSet
EndChar

StartChar: K
Encoding: 75 75 41
Width: 1350
GlyphClass: 2
Flags: W
HStem: 0 21G<129 323 1074.2 1308> 739 107<323 542> 1559 20G<129 323 1022.63 1251>
VStem: 129 194<0 739 846 1579>
LayerCount: 3
Fore
SplineSet
323 739 m 1
 323 0 l 1
 129 0 l 1
 129 1579 l 1
 323 1579 l 1
 323 846 l 1
 546 846 l 1
 1036 1579 l 1
 1251 1579 l 1
 694 781 l 1
 1308 0 l 1
 1089 0 l 1
 542 739 l 1
 323 739 l 1
EndSplineSet
EndChar

StartChar: L
Encoding: 76 76 42
Width: 1111
GlyphClass: 2
Flags: W
HStem: 0 143<323 1069> 1559 20G<129 323>
VStem: 129 194<143 1579>
LayerCount: 3
Fore
SplineSet
1069 0 m 1
 129 0 l 1
 129 1579 l 1
 323 1579 l 1
 323 143 l 1
 1069 143 l 1
 1069 0 l 1
EndSplineSet
EndChar

StartChar: M
Encoding: 77 77 43
Width: 1862
GlyphClass: 2
Flags: W
HStem: 0 21G<165 320 826.201 1035.8 1542 1697> 1559 20G<165 489.513 1372.49 1697>
VStem: 165 155<0 1509> 1542 155<0 1509>
DStem2: 483 1579 320 1509 0.321869 -0.946784<13.8102 1340.22>
LayerCount: 3
Fore
SplineSet
1029 0 m 1
 833 0 l 1
 320 1509 l 1
 320 0 l 1
 165 0 l 1
 165 1579 l 1
 483 1579 l 1
 837 492 l 1
 931 88 l 1
 1025 492 l 1
 1379 1579 l 1
 1697 1579 l 1
 1697 0 l 1
 1542 0 l 1
 1542 1509 l 1
 1029 0 l 1
EndSplineSet
EndChar

StartChar: N
Encoding: 78 78 44
Width: 1532
GlyphClass: 2
Flags: W
HStem: 0 21G<145 315 1124.34 1398> 1559 20G<145 418.663 1228 1398>
VStem: 145 170<0 1464> 1228 170<115 1579>
LayerCount: 3
Fore
SplineSet
403 1257 m 1
 315 1464 l 1
 315 0 l 1
 145 0 l 1
 145 1579 l 1
 407 1579 l 1
 1140 322 l 1
 1228 115 l 1
 1228 1579 l 1
 1398 1579 l 1
 1398 0 l 1
 1136 0 l 1
 403 1257 l 1
EndSplineSet
EndChar

StartChar: O
Encoding: 79 79 45
Width: 1557
GlyphClass: 2
Flags: W
HStem: -41 152<575.607 980.811> 1458 152<573.385 978.954>
VStem: 123 201<438.989 1145.61> 1233 201<431.27 1135.22>
LayerCount: 3
Fore
SplineSet
1434 784 m 0
 1434 313 1259 -41 778 -41 c 0
 516 -41 123 66 123 784 c 0
 123 1486 508 1610 764 1610 c 0
 1258 1610 1434 1261 1434 784 c 0
1233 784 m 0
 1233 1297 1051 1458 779 1458 c 0
 415 1458 324 1156 324 784 c 0
 324 285 506 111 779 111 c 0
 1142 111 1233 420 1233 784 c 0
EndSplineSet
EndChar

StartChar: P
Encoding: 80 80 46
Width: 1322
GlyphClass: 2
Flags: W
HStem: 0 21G<129 323> 639 145<323 849.688> 1436 143<323 883.672>
VStem: 129 194<0 639 784 1436> 1044 182<924.526 1300.56>
LayerCount: 3
Fore
SplineSet
493 784 m 2
 948 784 1044 904 1044 1084 c 0
 1044 1310 1005 1436 538 1436 c 2
 323 1436 l 1
 323 784 l 1
 493 784 l 2
1226 1108 m 0
 1226 827 1067 639 493 639 c 2
 323 639 l 1
 323 0 l 1
 129 0 l 1
 129 1579 l 1
 526 1579 l 2
 1079 1579 1226 1414 1226 1108 c 0
EndSplineSet
EndChar

StartChar: Q
Encoding: 81 81 47
Width: 1593
GlyphClass: 2
Flags: W
HStem: -424 21G<1160.65 1204.17> 1458 152<588.975 994.192>
VStem: 127 201<424.832 1140.68> 1254 200<426.486 1132.76>
LayerCount: 3
Fore
SplineSet
791 1458 m 0
 421 1458 328 1146 328 784 c 0
 328 422 421 111 791 111 c 0
 1161 111 1254 422 1254 784 c 0
 1254 1146 1161 1458 791 1458 c 0
1454 784 m 0
 1454 340 1299 32 926 -29 c 1
 1305 -293 l 1
 1186 -424 l 1
 693 -35 l 1
 314 8 127 297 127 792 c 0
 127 1267 325 1610 791 1610 c 0
 1056 1610 1454 1491 1454 784 c 0
EndSplineSet
EndChar

StartChar: R
Encoding: 82 82 48
Width: 1345
GlyphClass: 2
Flags: W
HStem: 0 21G<129 323 1038 1220> 733 129<323 804.687> 1436 143<323 910.948>
VStem: 129 194<0 733 862 1436> 1038 182<0 587.643 983.538 1337.47>
LayerCount: 3
Fore
SplineSet
809 797 m 1
 1061 770 1220 668 1220 397 c 2
 1220 0 l 1
 1038 0 l 1
 1038 412 l 2
 1038 628 937 733 503 733 c 2
 323 733 l 1
 323 0 l 1
 129 0 l 1
 129 1579 l 1
 505 1579 l 2
 853 1579 1222 1567 1222 1160 c 0
 1222 949 1060 797 809 797 c 1
477 862 m 1
 730 862 1052 865 1052 1150 c 0
 1052 1411 881 1436 505 1436 c 2
 323 1436 l 1
 323 862 l 1
 477 862 l 1
EndSplineSet
EndChar

StartChar: S
Encoding: 83 83 49
Width: 1314
GlyphClass: 2
Flags: W
HStem: -41 152<336.251 855.851> 1458 152<403.762 898.232>
VStem: 101 183<1081.9 1352.74> 1011 184<246.894 568.019>
DStem2: 524 974 337 858 0.945796 -0.324761<-230.439 508.231>
LayerCount: 3
Fore
SplineSet
170 72 m 1
 190 222 l 1
 289 170 407 111 600 111 c 0
 844 111 1011 184 1011 416 c 0
 1011 526 950 642 794 690 c 0
 767 699 381 836 337 858 c 0
 180 935 101 1054 101 1217 c 0
 101 1531 417 1610 600 1610 c 0
 836 1610 999 1537 1093 1484 c 1
 1063 1337 l 1
 999 1378 835 1458 662 1458 c 0
 364 1458 284 1358 284 1208 c 0
 284 1084 358 1033 524 974 c 1
 690 917 l 1
 992 823 1195 741 1195 426 c 0
 1195 239 1102 -41 632 -41 c 0
 445 -41 265 13 170 72 c 1
EndSplineSet
Layer: 2
SplineSet
1022 199 m 5
 1091 82 l 5
 994 6 831 -41 669 -41 c 4
 141 -41 9 382 9 788 c 4
 9 1503 417 1610 689 1610 c 4
 849 1610 1017 1540 1076 1492 c 5
 1047 1346 l 5
 955 1417 843 1458 689 1458 c 4
 327 1458 210 1191 210 788 c 4
 210 267 406 111 699 111 c 4
 849 111 986 173 1022 199 c 5
EndSplineSet
EndChar

StartChar: T
Encoding: 84 84 50
Width: 1135
GlyphClass: 2
Flags: W
HStem: 0 21G<433 624> 1436 143<-27 433 624 1081>
VStem: 433 191<0 1436>
LayerCount: 3
Fore
SplineSet
1081 1436 m 1
 624 1436 l 1
 624 0 l 1
 433 0 l 1
 433 1436 l 1
 -27 1436 l 1
 -27 1579 l 1
 1081 1579 l 1
 1081 1436 l 1
EndSplineSet
EndChar

StartChar: U
Encoding: 85 85 51
Width: 1561
GlyphClass: 2
Flags: W
HStem: -41 141<549.739 1002.14> 1559 20G<150 342 1210 1405>
VStem: 150 192<365.226 1579> 1210 195<365.662 1579>
LayerCount: 3
Fore
SplineSet
776 -41 m 0
 319 -41 150 233 150 715 c 2
 150 1579 l 1
 342 1579 l 1
 342 711 l 2
 342 188 516 100 776 100 c 0
 1036 100 1210 189 1210 711 c 2
 1210 1579 l 1
 1405 1579 l 1
 1405 715 l 2
 1405 295 1279 -41 776 -41 c 0
EndSplineSet
EndChar

StartChar: V
Encoding: 86 86 52
Width: 1321
GlyphClass: 2
Flags: W
HStem: 0 21G<520.73 778.27> 1559 20G<32 241.881 1057.12 1267>
DStem2: 236 1579 32 1579 0.299135 -0.954211<0 1376.94>
LayerCount: 3
Fore
SplineSet
772 0 m 1
 527 0 l 1
 32 1579 l 1
 236 1579 l 1
 578 416 l 1
 650 67 l 1
 721 416 l 1
 1063 1579 l 1
 1267 1579 l 1
 772 0 l 1
EndSplineSet
EndChar

StartChar: W
Encoding: 87 87 53
Width: 1984
GlyphClass: 2
Flags: W
HStem: 0 21G<364.744 662.761 1278.24 1576.26> 1559 20G<33 233.853 1707.15 1908>
LayerCount: 3
Fore
SplineSet
834 1489 m 1
 1107 1489 l 1
 1417 53 l 1
 1711 1579 l 1
 1908 1579 l 1
 1572 0 l 1
 1283 0 l 1
 1029 1067 l 1
 971 1433 l 1
 912 1067 l 1
 658 0 l 1
 369 0 l 1
 33 1579 l 1
 230 1579 l 1
 524 53 l 1
 834 1489 l 1
EndSplineSet
EndChar

StartChar: X
Encoding: 88 88 54
Width: 1297
GlyphClass: 2
Flags: W
HStem: 0 21G<42 277.25 1011.72 1247> 1559 20G<44 279.05 1010.1 1243>
DStem2: 268 1579 44 1579 0.524941 -0.851139<0 463.945 1146.42 1740.28>
LayerCount: 3
Fore
SplineSet
644 672 m 1
 266 0 l 1
 42 0 l 1
 530 791 l 1
 44 1579 l 1
 268 1579 l 1
 647 893 l 1
 1021 1579 l 1
 1243 1579 l 1
 762 789 l 1
 1247 0 l 1
 1023 0 l 1
 644 672 l 1
EndSplineSet
EndChar

StartChar: Y
Encoding: 89 89 55
Width: 1326
GlyphClass: 2
Flags: W
HStem: 0 21G<568 758> 1559 20G<54 279.628 1046.26 1272>
VStem: 568 190<0 485>
DStem2: 271 1579 54 1579 0.425239 -0.905081<0 878.208> 1055 1579 1272 1579 0.425239 0.905081<-797.885 0>
LayerCount: 3
Fore
SplineSet
746 872 m 1
 1055 1579 l 1
 1272 1579 l 1
 758 485 l 1
 758 0 l 1
 568 0 l 1
 568 485 l 1
 54 1579 l 1
 271 1579 l 1
 576 872 l 1
 658 586 l 1
 746 872 l 1
EndSplineSet
EndChar

StartChar: Z
Encoding: 90 90 56
Width: 1193
GlyphClass: 2
Flags: W
HStem: 0 143<281 1116> 1447 132<84 923>
DStem2: 84 180 281 143 0.546648 0.837362<76.7073 1519.58>
LayerCount: 3
Fore
SplineSet
1114 1579 m 1
 1114 1419 l 1
 281 143 l 1
 1116 143 l 1
 1116 0 l 1
 84 0 l 1
 84 180 l 1
 923 1447 l 1
 84 1447 l 1
 84 1579 l 1
 1114 1579 l 1
EndSplineSet
EndChar

StartChar: bracketleft
Encoding: 91 91 57
Width: 1294
GlyphClass: 2
Flags: W
HStem: 0 143<502 973> 1436 143<502 973>
VStem: 309 193<143 1436>
LayerCount: 3
Fore
SplineSet
309 1579 m 1
 973 1579 l 1
 973 1436 l 1
 502 1436 l 1
 502 143 l 1
 973 143 l 1
 973 0 l 1
 309 0 l 1
 309 1579 l 1
EndSplineSet
EndChar

StartChar: backslash
Encoding: 92 92 58
Width: 1507
GlyphClass: 2
Flags: W
DStem2: 475 1731 322 1731 0.318025 -0.948083<0 1950.83>
LayerCount: 3
Fore
SplineSet
475 1731 m 1
 1112 -168 l 1
 948 -168 l 1
 322 1731 l 1
 475 1731 l 1
EndSplineSet
EndChar

StartChar: bracketright
Encoding: 93 93 59
Width: 1294
GlyphClass: 2
Flags: W
HStem: 0 143<309 780> 1436 143<309 780>
VStem: 780 193<143 1436>
LayerCount: 3
Fore
SplineSet
309 1579 m 1
 973 1579 l 1
 973 0 l 1
 309 0 l 1
 309 143 l 1
 780 143 l 1
 780 1436 l 1
 309 1436 l 1
 309 1579 l 1
EndSplineSet
EndChar

StartChar: asciicircum
Encoding: 94 94 60
Width: 1428
GlyphClass: 2
Flags: W
HStem: 402 609
LayerCount: 3
Fore
SplineSet
658.5 1011 m 1
 770.5 1011 l 1
 1142.5 500 l 1
 996.5 402 l 1
 765.5 764 l 1
 714.5 917 l 1
 663.5 764 l 1
 432.5 402 l 1
 286.5 500 l 1
 658.5 1011 l 1
EndSplineSet
EndChar

StartChar: underscore
Encoding: 95 95 61
Width: 1265
GlyphClass: 2
Flags: W
HStem: -111 144<127 1067>
LayerCount: 3
Fore
SplineSet
1067 -111 m 1
 127 -111 l 1
 127 33 l 1
 1067 33 l 1
 1067 -111 l 1
EndSplineSet
EndChar

StartChar: grave
Encoding: 96 96 62
Width: 778
GlyphClass: 2
Flags: W
HStem: 330 644
VStem: 68 395
LayerCount: 3
Fore
SplineSet
463 356 m 1
 396 330 l 1
 68 885 l 1
 310 974 l 1
 463 356 l 1
EndSplineSet
EndChar

StartChar: a
Encoding: 97 97 63
Width: 1186
GlyphClass: 2
Flags: W
HStem: -23 142<380.263 706.348> 0 21G<910.854 1054> 590 125<401.475 848.949> 1047 143<391.704 786.189>
VStem: 116 191<191.867 503.219> 864 190<231.845 575.598 665 962.859> 914 140<0 91.136>
LayerCount: 3
Back
SplineSet
941 386 m 1,0,-1
 941 -494 l 1,1,-1
 1131 -494 l 1,2,-1
 1131 675 l 1,3,-1
 991 675 l 1,4,-1
 967 488 l 1,5,6
 905 566 905 566 776 630 c 128,-1,7
 647 694 647 694 518 694 c 0,8,9
 468 694 468 694 422 684.5 c 128,-1,10
 376 675 376 675 324 645 c 128,-1,11
 272 615 272 615 234.5 566 c 128,-1,12
 197 517 197 517 172 431.5 c 128,-1,13
 147 346 147 346 147 233 c 2,14,-1
 147 -494 l 1,15,-1
 337 -494 l 1,16,-1
 337 233 l 2,17,18
 337 306 337 306 348 362 c 128,-1,19
 359 418 359 418 383.5 462.5 c 128,-1,20
 408 507 408 507 453 530 c 128,-1,21
 498 553 498 553 561 553 c 0,22,23
 663 553 663 553 779.5 491.5 c 128,-1,24
 896 430 896 430 941 386 c 1,0,-1
EndSplineSet
Fore
SplineSet
555 119 m 0xbc
 680 119 782 194 864 271 c 1
 864 569 l 1
 779 583 702 590 633 590 c 0
 371 590 307 497 307 356 c 0
 307 183 386 119 555 119 c 0xbc
864 665 m 1
 864 713 l 1
 864 964 826 1047 612 1047 c 0
 418 1047 250 936 249 935 c 1
 182 1057 l 1
 184 1056 368 1190 602 1190 c 0
 942 1190 1054 1047 1054 686 c 2xbc
 1054 0 l 1
 914 0 l 1x7a
 886 178 l 1
 794 51 673 -23 508 -23 c 0
 263 -23 116 102 116 339 c 2
 116 343 l 1
 116 585 297 715 560 715 c 0
 653 715 792 694 864 665 c 1
EndSplineSet
Layer: 2
SplineSet
555 119 m 4xbc
 680 119 782 194 864 271 c 5
 864 569 l 5
 779 583 702 590 633 590 c 4
 371 590 307 497 307 356 c 4
 307 183 386 119 555 119 c 4xbc
864 665 m 5
 864 713 l 5
 864 964 826 1047 612 1047 c 4
 432 1047 279 958 249 935 c 5
 182 1057 l 5
 272 1133 474 1190 602 1190 c 4
 942 1190 1054 1047 1054 686 c 6xbc
 1054 0 l 5
 914 0 l 5x7a
 886 178 l 5
 794 51 673 -23 508 -23 c 4
 263 -23 116 102 116 339 c 6
 116 343 l 5
 116 585 297 715 560 715 c 4
 653 715 792 694 864 665 c 5
EndSplineSet
EndChar

StartChar: b
Encoding: 98 98 64
Width: 1272
GlyphClass: 2
Flags: W
HStem: -20 143<505.865 834.932> 0 21G<146 289.146> 1047 143<505.385 831.219>
VStem: 146 190<237.297 934.931 1030 1657> 146 140<0 91.136> 978 182<303.499 862.718>
LayerCount: 3
Back
SplineSet
337 880 m 5,0,-1
 337 0 l 5,1,-1
 147 0 l 5,2,-1
 147 1169 l 5,3,-1
 287 1169 l 5,4,-1
 311 982 l 5,5,6
 373 1060 373 1060 502 1124 c 132,-1,7
 631 1188 631 1188 760 1188 c 4,8,9
 810 1188 810 1188 856 1178.5 c 132,-1,10
 902 1169 902 1169 954 1139 c 132,-1,11
 1006 1109 1006 1109 1043.5 1060 c 132,-1,12
 1081 1011 1081 1011 1106 925.5 c 132,-1,13
 1131 840 1131 840 1131 727 c 6,14,-1
 1131 0 l 5,15,-1
 941 0 l 5,16,-1
 941 727 l 6,17,18
 941 800 941 800 930 856 c 132,-1,19
 919 912 919 912 894.5 956.5 c 132,-1,20
 870 1001 870 1001 825 1024 c 132,-1,21
 780 1047 780 1047 717 1047 c 4,22,23
 615 1047 615 1047 498.5 985.5 c 132,-1,24
 382 924 382 924 337 880 c 5,0,-1
EndSplineSet
Fore
SplineSet
684 -20 m 4xb4
 526 -20 394 83 314 178 c 5
 286 0 l 5
 146 0 l 5x6c
 146 1657 l 5
 336 1692 l 5
 336 1030 l 5
 354 1051 506 1190 684 1190 c 4
 1065 1190 1160 830 1160 584 c 4
 1160 270 1028 -20 684 -20 c 4xb4
978 584 m 4
 978 811 924 1047 691 1047 c 4
 535 1047 384 947 336 902 c 5
 336 273 l 5
 460 155 592 123 691 123 c 4xb4
 921 123 978 357 978 584 c 4
EndSplineSet
Layer: 2
SplineSet
922 442 m 6xb4
 922 252 869 123 690 123 c 4
 500 123 360 245 336 276 c 5
 336 1169 l 5
 146 1169 l 5xb8
 146 0 l 5
 287 0 l 5x74
 314 188 l 5
 439 49 567 -20 700 -20 c 4
 947 -20 1112 108 1112 442 c 6
 1112 1169 l 5
 922 1169 l 5
 922 442 l 6xb4
EndSplineSet
EndChar

StartChar: c
Encoding: 99 99 65
Width: 1092
GlyphClass: 2
Flags: W
HStem: -23 150<464.546 843.864> 1040 150<468.004 843.625>
VStem: 112 190<324.318 848.683>
LayerCount: 3
Fore
SplineSet
302 580 m 0
 302 902 430 1040 640 1040 c 0
 762 1040 866 1001 954 924 c 1
 1011 1057 l 1
 885 1146 756 1190 623 1190 c 0
 418 1190 112 1064 112 580 c 0
 112 93 419 -23 620 -23 c 0
 757 -23 887 22 1011 111 c 1
 954 245 l 1
 869 166 759 127 625 127 c 0
 458 127 302 234 302 580 c 0
EndSplineSet
EndChar

StartChar: d
Encoding: 100 100 66
Width: 1265
GlyphClass: 2
Flags: W
HStem: -20 143<444.465 769.666> 0 21G<984.872 1129> 1047 143<439.611 771.922>
VStem: 112 181.999<302.952 861.118> 939 190<235.534 932.874 1028 1657> 988 141<0 91.648>
LayerCount: 3
Back
SplineSet
112 584 m 4,0,1
 112 754 112 754 163.5 889.5 c 132,-1,2
 215 1025 215 1025 321.5 1107.5 c 132,-1,3
 428 1190 428 1190 574 1190 c 4,2,3
 691 1190 691 1190 791 1139 c 132,-1,4
 891 1088 891 1088 939 1028 c 5,4,-1
 939 1692 l 5,5,-1
 1129 1657 l 5,6,-1
 1129 0 l 5,7,-1
 988 0 l 5,8,-1
 960 179 l 5,9,10
 901 103 901 103 803.5 41.5 c 132,-1,11
 706 -20 706 -20 596 -20 c 4,11,12
 470 -20 470 -20 374.5 29 c 132,-1,13
 279 78 279 78 223 164 c 132,-1,14
 167 250 167 250 139.5 355.5 c 132,-1,15
 112 461 112 461 112 584 c 4,0,1
293.999 586.556 m 4,13,14
 294.924 123 294.924 123 592 123 c 4,15,16
 701 123 701 123 794.5 172 c 132,-1,17
 888 221 888 221 939 275 c 5,17,-1
 939 903 l 5,18,19
 750 1047 750 1047 586 1047 c 4,20,21
 419 1047 419 1047 345 893 c 4,22,23
 323.414 847.238 323.414 847.238 310.824 772.698 c 132,-1,24
 298.234 698.159 298.234 698.159 296.088 656.979 c 132,-1,25
 293.941 615.799 293.941 615.799 293.999 586.556 c 4,13,14
EndSplineSet
Fore
SplineSet
112 584 m 0xb4
 112 919 272 1190 574 1190 c 0
 747 1190 886 1093.5 939 1028 c 1
 939 1692 l 1
 1129 1657 l 1xb8
 1129 0 l 1
 988 0 l 1x74
 960 179 l 1
 897 97.5 758 -20 596 -20 c 0
 248 -20 112 267 112 584 c 0xb4
293.999 586.556 m 0
 294.002 335.5 361 123 592 123 c 0
 756 123 890 223 939 275 c 1
 939 903 l 1
 830.5 985.5 707.5 1047 586 1047 c 0
 469.199 1047 293.999 990.839 293.999 586.556 c 0
EndSplineSet
Layer: 2
SplineSet
591 -20 m 0xb4
 749 -20 881 83 961 178 c 1
 989 0 l 1
 1129 0 l 1x6c
 1129 1657 l 1
 939 1692 l 1
 939 1030 l 1
 921 1051 769 1190 591 1190 c 0
 210 1190 115 830 115 584 c 0
 115 270 247 -20 591 -20 c 0xb4
297 584 m 0
 297 811 351 1047 584 1047 c 0
 740 1047 891 947 939 902 c 1
 939 273 l 1
 815 155 683 123 584 123 c 0xb4
 354 123 297 357 297 584 c 0
EndSplineSet
EndChar

StartChar: e
Encoding: 101 101 67
Width: 1145
GlyphClass: 2
Flags: W
HStem: -23 150<460.968 842.792> 567 115<302 902> 1057 133<456.543 786.264>
VStem: 112 190<302.152 567 682 854.357> 902 168<682 926.576>
LayerCount: 3
Fore
SplineSet
902 717 m 6
 902 1012 738 1057 628 1057 c 4
 501 1057 302 998 302 682 c 5
 902 682 l 5
 902 717 l 6
302 567 m 5
 302 313 371 127 648 127 c 4
 761 127 863 166 954 244 c 5
 1016 99 l 5
 903 16 725 -23 636 -23 c 4
 296 -23 112 211 112 578 c 4
 112 973 331 1190 627 1190 c 4
 919 1190 1070 981 1070 676 c 4
 1070 641 1067 605 1062 567 c 5
 302 567 l 5
EndSplineSet
EndChar

StartChar: f
Encoding: 102 102 68
Width: 825
GlyphClass: 2
Flags: W
HStem: 0 21G<261 451> 1064 105<66 261 451 799> 1516 143<484.357 733.435>
VStem: 261 190<0 1064 1169 1480.08>
LayerCount: 3
Fore
SplineSet
616 1516 m 0
 452.906 1516 450.999 1447.33 450.999 1256.89 c 0
 451 1243 l 1
 451 1169 l 1
 799 1169 l 1
 799 1064 l 5
 451 1064 l 5
 451 0 l 1
 261 0 l 1
 261 1064 l 5
 66 1064 l 5
 66 1169 l 1
 261 1169 l 1
 261 1198 l 2
 261 1571 393 1659 592 1659 c 1
 697 1659 834 1579 834 1567 c 1
 771 1442 l 1
 716 1491 664 1516 616 1516 c 0
EndSplineSet
EndChar

StartChar: g
Encoding: 103 103 69
Width: 1250
GlyphClass: 2
Flags: WO
HStem: -497 145<374.177 881.202> 77 138<441.994 894.97> 509 89<447 487> 1032 154<980.125 1217> 1065 125<434.799 798.596>
VStem: 125 158<-270.366 -47.5962> 161 174<685.33 974.341> 233.448 150.552<224.663 341.305> 895 165<682.35 974.753> 976 178<-268.259 3.88904>
DStem2: 418 476 703 491 0.892186 0.451669<-112.203 76.4659>
LayerCount: 3
Back
SplineSet
1132.75 1164.55 m 1,0,-1
 1132.75 1048.16 l 1,1,-1
 929.835 1020.35 l 1,2,3
 958.675 984.3 958.675 984.3 978.245 928.165 c 128,-1,4
 997.815 872.03 997.815 872.03 997.815 800.96 c 0,5,6
 997.815 722.68 997.815 722.68 973.61 656.245 c 128,-1,7
 949.405 589.81 949.405 589.81 900.48 541.4 c 128,-1,8
 851.555 492.99 851.555 492.99 779.455 465.695 c 128,-1,9
 707.355 438.4 707.355 438.4 611.565 438.4 c 0,10,11
 588.905 438.4 588.905 438.4 566.245 438.915 c 128,-1,12
 543.585 439.43 543.585 439.43 529.165 442.52 c 1,13,14
 511.655 432.22 511.655 432.22 494.66 419.345 c 128,-1,15
 477.665 406.47 477.665 406.47 463.76 389.99 c 128,-1,16
 449.855 373.51 449.855 373.51 441.1 352.91 c 128,-1,17
 432.345 332.31 432.345 332.31 432.345 307.59 c 0,18,19
 432.345 279.78 432.345 279.78 444.705 262.785 c 128,-1,20
 457.065 245.79 457.065 245.79 478.18 236.52 c 128,-1,21
 499.295 227.25 499.295 227.25 528.135 224.16 c 128,-1,22
 556.975 221.07 556.975 221.07 588.905 221.07 c 2,23,-1
 770.185 221.07 l 2,24,25
 865.975 221.07 865.975 221.07 931.895 196.865 c 128,-1,26
 997.815 172.66 997.815 172.66 1039.53 131.46 c 128,-1,27
 1081.25 90.2598 1081.25 90.2598 1099.79 34.125 c 128,-1,28
 1118.33 -22.0098 1118.33 -22.0098 1118.33 -84.8398 c 0,29,30
 1118.33 -175.48 1118.33 -175.48 1084.85 -247.58 c 128,-1,31
 1051.38 -319.68 1051.38 -319.68 982.365 -369.635 c 128,-1,32
 913.355 -419.59 913.355 -419.59 807.78 -446.37 c 128,-1,33
 702.205 -473.15 702.205 -473.15 559.035 -473.15 c 0,34,35
 448.825 -473.15 448.825 -473.15 366.425 -451.52 c 128,-1,36
 284.025 -429.89 284.025 -429.89 229.435 -388.69 c 128,-1,37
 174.845 -347.49 174.845 -347.49 147.55 -289.295 c 128,-1,38
 120.255 -231.1 120.255 -231.1 120.255 -157.97 c 0,39,40
 120.255 -96.1699 120.255 -96.1699 140.34 -49.3047 c 128,-1,41
 160.425 -2.44043 160.425 -2.44043 194.415 31.5498 c 128,-1,42
 228.405 65.54 228.405 65.54 273.21 87.1699 c 128,-1,43
 318.015 108.8 318.015 108.8 366.425 120.13 c 1,44,45
 323.165 139.7 323.165 139.7 295.355 181.93 c 128,-1,46
 267.545 224.16 267.545 224.16 267.545 278.75 c 0,47,48
 267.545 341.58 267.545 341.58 300.505 387.415 c 128,-1,49
 333.465 433.25 333.465 433.25 404.535 476.51 c 1,50,51
 360.245 495.05 360.245 495.05 323.68 527.495 c 128,-1,52
 287.115 559.94 287.115 559.94 261.88 601.655 c 128,-1,53
 236.645 643.37 236.645 643.37 222.74 692.81 c 128,-1,54
 208.835 742.25 208.835 742.25 208.835 794.78 c 0,55,56
 208.835 886.45 208.835 886.45 234.585 958.55 c 128,-1,57
 260.335 1030.65 260.335 1030.65 310.805 1081.12 c 128,-1,58
 361.275 1131.59 361.275 1131.59 436.465 1158.37 c 128,-1,59
 511.655 1185.15 511.655 1185.15 611.565 1185.15 c 0,60,61
 649.675 1185.15 649.675 1185.15 690.36 1179.49 c 128,-1,62
 731.045 1173.82 731.045 1173.82 758.855 1164.55 c 1,63,-1
 1132.75 1164.55 l 1,0,-1
297.415 -151.79 m 0,64,65
 297.415 -189.9 297.415 -189.9 310.805 -222.86 c 128,-1,66
 324.195 -255.82 324.195 -255.82 354.58 -279.51 c 128,-1,67
 384.965 -303.2 384.965 -303.2 434.92 -317.105 c 128,-1,68
 484.875 -331.01 484.875 -331.01 559.035 -331.01 c 0,69,70
 750.615 -331.01 750.615 -331.01 845.89 -271.785 c 128,-1,71
 941.165 -212.56 941.165 -212.56 941.165 -101.32 c 0,72,73
 941.165 -53.9404 941.165 -53.9404 928.805 -24.0703 c 128,-1,74
 916.445 5.7998 916.445 5.7998 888.12 22.7949 c 128,-1,75
 859.795 39.79 859.795 39.79 813.445 45.9697 c 128,-1,76
 767.095 52.1504 767.095 52.1504 700.145 52.1504 c 2,77,-1
 518.865 52.1504 l 2,78,79
 482.815 52.1504 482.815 52.1504 443.675 43.9102 c 128,-1,80
 404.535 35.6699 404.535 35.6699 372.09 13.0098 c 128,-1,81
 339.645 -9.65039 339.645 -9.65039 318.53 -49.3047 c 128,-1,82
 297.415 -88.96 297.415 -88.96 297.415 -151.79 c 0,64,65
392.175 800.96 m 0,83,84
 392.175 682.51 392.175 682.51 447.795 624.83 c 128,-1,85
 503.415 567.15 503.415 567.15 605.385 567.15 c 0,86,87
 708.385 567.15 708.385 567.15 761.43 624.315 c 128,-1,88
 814.475 681.48 814.475 681.48 814.475 804.05 c 0,89,90
 814.475 930.74 814.475 930.74 760.4 990.48 c 128,-1,91
 706.325 1050.22 706.325 1050.22 603.325 1050.22 c 0,92,93
 501.355 1050.22 501.355 1050.22 446.765 988.42 c 128,-1,94
 392.175 926.62 392.175 926.62 392.175 800.96 c 0,83,84
EndSplineSet
Fore
SplineSet
335 830 m 0xea80
 335 669 447 598 612 598 c 0
 793 598 895 656 895 830 c 0
 895 980 795 1065 615 1065 c 0
 446 1065 335 991 335 830 c 0xea80
283 -142 m 0xe440
 283 -294 397 -352 593 -352 c 0
 804 -352 976 -333 976 -143 c 0
 976 3 909.048 79.4521 697 78 c 2
 551 77 l 1
 551 77 283 2 283 -142 c 0xe440
703 491 m 9
 543 410 l 2
 504.269 390.393 384 326 384 293 c 0xf180
 384 246 423.841 218.308 459 215 c 2
 713 214 l 2
 981.004 212.945 1154 121 1154 -138 c 0
 1154 -419 901 -497 582 -497 c 0
 318 -497 125 -400 125 -157 c 0xf440
 125 20 390 101 391 102 c 1
 282.243 123.751 233.448 199.894 233.448 280.195 c 0xf1
 233.448 384.602 326.359 432.172 418 476 c 2
 487 509 l 1
 340 506 161 632 161 839.5 c 4
 161 1047 352.004 1188.55 619 1190 c 2xea
 622.266 1190.01 l 2
 804.719 1190.01 911 1107 911 1107 c 1
 990 1146 l 1
 1033 1166 1119 1186 1187 1186 c 2
 1217 1186 l 1
 1217 1032 l 1
 978 1032 l 1
 1008 1001 l 1
 1047 944 1060 893 1060 835 c 0xf280
 1060 515 705.108 492.701 703 491 c 9
EndSplineSet
Layer: 2
SplineSet
319 834 m 4xa0
 319 673 431 608 596 608 c 4
 777 608 879 660 879 834 c 4
 879 984 779 1065 599 1065 c 4
 430 1065 319 995 319 834 c 4xa0
243 -145 m 4
 243 -297 397 -342 593 -342 c 4
 804 -342 976 -323 976 -133 c 4
 976 13 896.916 66.2266 697 88 c 5
 414 121 l 5
 330 68 243 -51 243 -145 c 4
668 449 m 6
 369 368 l 5
 326.846 357.621 304 346 304 313 c 4
 304 266 343.841 262.308 379 259 c 6
 713 224 l 6
 910.235 203.332 1154 131 1154 -128 c 4
 1154 -409 901 -487 582 -487 c 4
 318 -487 85 -421 85 -178 c 4
 85 -55 176 89 311 146 c 5
 202.243 167.751 153.448 219.894 153.448 300.195 c 4
 153.448 404.602 218.478 446.078 318 466.434 c 6
 531 510 l 5
 313.45 522 141 641 141 848.5 c 4
 141 1056 336.004 1188.55 603 1190 c 6xa0
 606.266 1190.01 l 6
 788.719 1190.01 895 1107 895 1107 c 5
 974 1146 l 5
 1017 1166 1103 1186 1171 1186 c 6
 1201 1186 l 5
 1201 1032 l 5
 962 1032 l 5xc0
 992 1001 l 5
 1031 944 1044 897 1044 839 c 4
 1044 690 971.365 531.183 668 449 c 6
EndSplineSet
EndChar

StartChar: h
Encoding: 104 104 70
Width: 1265
GlyphClass: 2
Flags: W
HStem: 0 21G<146 336 943 1133> 1047 143<527.101 854.271>
VStem: 146 190<0 924.946 989 1655> 943 190<0 945.734>
LayerCount: 3
Back
SplineSet
332 880 m 5,0,-1
 332 0 l 5,1,-1
 142 0 l 5,2,-1
 142 1169 l 5,3,-1
 282 1169 l 5,4,-1
 306 982 l 5,5,6
 368 1060 368 1060 497 1124 c 132,-1,7
 626 1188 626 1188 755 1188 c 4,8,9
 805 1188 805 1188 851 1178.5 c 132,-1,10
 897 1169 897 1169 949 1139 c 132,-1,11
 1001 1109 1001 1109 1038.5 1060 c 132,-1,12
 1076 1011 1076 1011 1101 925.5 c 132,-1,13
 1126 840 1126 840 1126 727 c 6,14,-1
 1126 0 l 5,15,-1
 936 0 l 5,16,-1
 936 727 l 6,17,18
 936 800 936 800 925 856 c 132,-1,19
 914 912 914 912 889.5 956.5 c 132,-1,20
 865 1001 865 1001 820 1024 c 132,-1,21
 775 1047 775 1047 712 1047 c 4,22,23
 610 1047 610 1047 493.5 985.5 c 132,-1,24
 377 924 377 924 332 880 c 5,0,-1
EndSplineSet
Fore
SplineSet
943 727 m 2
 943 971 850 1047 711 1047 c 0
 523 1047 370 924 336 888 c 1
 336 0 l 1
 146 0 l 1
 146 1655 l 1
 336 1692 l 1
 336 989 l 1
 419 1078 530 1190 711 1190 c 0
 964 1190 1133 1074 1133 727 c 2
 1133 0 l 1
 943 0 l 1
 943 727 l 2
EndSplineSet
EndChar

StartChar: k
Encoding: 107 107 73
Width: 1136
GlyphClass: 2
Flags: W
HStem: 0 21G<146 336 914.703 1153> 1149 20G<874.373 1120> 1569 20G<227.429 336>
VStem: 146 190<0 459 627 1554>
DStem2: 336 627 567 648 0.717939 0.696106<180.462 778.617> 567 648 452 555 0.670733 -0.741698<0 725.438>
LayerCount: 3
Back
SplineSet
329 880 m 5,0,-1
 329 0 l 5,1,-1
 139 0 l 5,2,-1
 139 1169 l 5,3,-1
 279 1169 l 5,4,-1
 303 982 l 5,5,6
 365 1060 365 1060 494 1124 c 132,-1,7
 623 1188 623 1188 752 1188 c 4,8,9
 802 1188 802 1188 848 1178.5 c 132,-1,10
 894 1169 894 1169 946 1139 c 132,-1,11
 998 1109 998 1109 1035.5 1060 c 132,-1,12
 1073 1011 1073 1011 1098 925.5 c 132,-1,13
 1123 840 1123 840 1123 727 c 6,14,-1
 1123 0 l 5,15,-1
 933 0 l 5,16,-1
 933 727 l 6,17,18
 933 800 933 800 922 856 c 132,-1,19
 911 912 911 912 886.5 956.5 c 132,-1,20
 862 1001 862 1001 817 1024 c 132,-1,21
 772 1047 772 1047 709 1047 c 4,22,23
 607 1047 607 1047 490.5 985.5 c 132,-1,24
 374 924 374 924 329 880 c 5,0,-1
EndSplineSet
Fore
SplineSet
1120 1169 m 1
 567 648 l 1
 1153 0 l 1
 932 0 l 1
 452 555 l 1
 336 459 l 1
 336 0 l 1
 146 0 l 1
 146 1554 l 1
 336 1589 l 1
 336 627 l 1
 895 1169 l 1
 1120 1169 l 1
EndSplineSet
EndChar

StartChar: l
Encoding: 108 108 74
Width: 590
GlyphClass: 2
Flags: W
HStem: 0 21G<205 395>
VStem: 205 190<0 1661>
LayerCount: 3
Fore
SplineSet
205 0 m 1
 205 1661 l 1
 395 1696 l 1
 395 0 l 1
 205 0 l 1
EndSplineSet
EndChar

StartChar: m
Encoding: 109 109 75
Width: 1946
GlyphClass: 2
Flags: W
HStem: 0 21G<146 336 878 1068 1624 1814> 1047 143<523.022 816.93 1259.77 1559.5> 1149 20G<146 289.621>
VStem: 146 190<0 898.756> 146 141<1059.62 1169> 878 190<0 895.938> 1624 190<0 976.448>
LayerCount: 3
Back
SplineSet
337 880 m 5,0,-1
 337 0 l 5,1,-1
 147 0 l 5,2,-1
 147 1169 l 5,3,-1
 287 1169 l 5,4,-1
 311 982 l 5,5,6
 373 1060 373 1060 502 1124 c 132,-1,7
 631 1188 631 1188 760 1188 c 4,8,9
 810 1188 810 1188 856 1178.5 c 132,-1,10
 902 1169 902 1169 954 1139 c 132,-1,11
 1006 1109 1006 1109 1043.5 1060 c 132,-1,12
 1081 1011 1081 1011 1106 925.5 c 132,-1,13
 1131 840 1131 840 1131 727 c 6,14,-1
 1131 0 l 5,15,-1
 941 0 l 5,16,-1
 941 727 l 6,17,18
 941 800 941 800 930 856 c 132,-1,19
 919 912 919 912 894.5 956.5 c 132,-1,20
 870 1001 870 1001 825 1024 c 132,-1,21
 780 1047 780 1047 717 1047 c 4,22,23
 615 1047 615 1047 498.5 985.5 c 132,-1,24
 382 924 382 924 337 880 c 5,0,-1
EndSplineSet
Fore
SplineSet
1038 967 m 1xce
 1134 1106 1301 1190 1458 1190 c 0
 1689 1190 1814 1019 1814 766 c 2
 1814 0 l 1
 1624 0 l 1
 1624 768 l 2
 1624 997 1546 1047 1430 1047 c 0
 1307 1047 1189 984 1068 858 c 1
 1068 0 l 1
 878 0 l 1
 878 768 l 2
 878 1002 801 1047 686 1047 c 0
 577 1047 461 985 336 860 c 1
 336 0 l 1
 146 0 l 1xd6
 146 1169 l 1
 287 1169 l 1xae
 314 963 l 1
 389 1085 538 1190 717 1190 c 0
 910 1190 1002 1074 1038 967 c 1xce
EndSplineSet
EndChar

StartChar: n
Encoding: 110 110 76
Width: 1262
GlyphClass: 2
Flags: W
HStem: 0 21G<146 336 940 1130> 1047 141<549.205 851.341> 1149 20G<146 288.567>
VStem: 146 190<0 914.096> 146 140<1057.3 1169> 940 190<0 951.362>
LayerCount: 3
Fore
SplineSet
336 880 m 5xd4
 336 0 l 5
 146 0 l 5xd4
 146 1169 l 5
 286 1169 l 5xac
 310 982 l 5
 385 1076 576 1188 759 1188 c 4
 907 1188 1130 1121 1130 727 c 6
 1130 0 l 5
 940 0 l 5
 940 727 l 6
 940 913 890 1047 716 1047 c 4
 558 1047 371 914 336 880 c 5xd4
EndSplineSet
EndChar

StartChar: o
Encoding: 111 111 77
Width: 1277
GlyphClass: 2
Flags: W
HStem: -20 137<465.386 810.653> 1051 139<465.209 810.83>
VStem: 108 182<319.594 845.401> 986 183<319.374 845.399>
LayerCount: 3
Fore
SplineSet
290 582 m 0
 290 315 389 117 638 117 c 0
 887 117 986 314 986 582 c 0
 986 849 887 1051 638 1051 c 0
 389 1051 290 850 290 582 c 0
108 582 m 0
 108 911 275 1190 638 1190 c 0
 1001 1190 1169 912 1169 582 c 0
 1169 251 1000 -20 638 -20 c 0
 276 -20 108 251 108 582 c 0
EndSplineSet
EndChar

StartChar: p
Encoding: 112 112 78
Width: 1276
GlyphClass: 2
Flags: W
HStem: -487 21G<146 318.727> -20 143<510.622 838.887> 1047 143<520.807 836.564> 1149 20G<146 290.333>
VStem: 146 190<-465 164 248.098 926.766> 146 141<1082.98 1169> 982 182<307.564 857.814>
LayerCount: 3
Back
SplineSet
337 0 m 5,0,-1
 147 0 l 5,1,-1
 147 1169 l 5,2,-1
 337 1169 l 5,3,-1
 337 0 l 5,0,-1
EndSplineSet
Fore
SplineSet
695 -20 m 0xe6
 543 -20 410 71 336 164 c 1
 336 -465 l 1xea
 146 -487 l 1
 146 1169 l 1
 287 1169 l 1xd6
 320 971 l 1
 394 1068 527 1190 694 1190 c 0
 1070 1190 1164 831 1164 584 c 0
 1164 280 1027 -20 695 -20 c 0xe6
982 543 m 0
 982 757 942 1047 695 1047 c 0
 523 1047 363 919 336 890 c 1
 336 285 l 1
 347 272 509 123 676 123 c 0
 752 123 896 133 953 343 c 0
 972 414 982 480 982 543 c 0
EndSplineSet
EndChar

StartChar: q
Encoding: 113 113 79
Width: 1275
GlyphClass: 2
Flags: W
HStem: -502 21G<939 1104.22> -20 143<436.991 763.493> 1047 143<431.947 752.66> 1149 20G<986.566 1129>
VStem: 112 182<310.325 875.166> 939 190<-479 164 231.764 929.921> 990 139<1085.51 1169>
LayerCount: 3
Back
SplineSet
1133 0 m 5,0,-1
 943 0 l 5,1,-1
 943 1169 l 5,2,-1
 1133 1169 l 5,3,-1
 1133 0 l 5,0,-1
EndSplineSet
Fore
SplineSet
573 1190 m 0xec
 737 1190 883 1081 956 971 c 1
 990 1169 l 1
 1129 1169 l 1xda
 1129 -479 l 1
 939 -502 l 1
 939 164 l 1
 867 74 737 -20 583 -20 c 0
 245 -20 112 285 112 584 c 0
 112 895 241 1190 573 1190 c 0xec
294 584 m 0
 294 182 467 123 583 123 c 0
 748 123 900 229 939 268 c 1
 939 891 l 1
 841 989 676 1047 573 1047 c 0xec
 387 1047 294 893 294 584 c 0
EndSplineSet
EndChar

StartChar: r
Encoding: 114 114 80
Width: 794
GlyphClass: 2
Flags: W
HStem: 0 21G<146 336> 1030 160<495.929 741> 1149 20G<146 292.125>
VStem: 146 190<0 924.995> 146 143<1077.25 1169>
LayerCount: 3
Back
SplineSet
335 880 m 5,0,-1
 335 0 l 5,1,-1
 145 0 l 5,2,-1
 145 1169 l 5,3,-1
 285 1169 l 5,4,-1
 309 982 l 5,5,6
 371 1060 371 1060 500 1124 c 132,-1,7
 629 1188 629 1188 758 1188 c 4,8,9
 808 1188 808 1188 854 1178.5 c 132,-1,10
 900 1169 900 1169 952 1139 c 132,-1,11
 1004 1109 1004 1109 1041.5 1060 c 132,-1,12
 1079 1011 1079 1011 1104 925.5 c 132,-1,13
 1129 840 1129 840 1129 727 c 6,14,-1
 1129 0 l 5,15,-1
 939 0 l 5,16,-1
 939 727 l 6,17,18
 939 800 939 800 928 856 c 132,-1,19
 917 912 917 912 892.5 956.5 c 132,-1,20
 868 1001 868 1001 823 1024 c 132,-1,21
 778 1047 778 1047 715 1047 c 4,22,23
 613 1047 613 1047 496.5 985.5 c 132,-1,24
 380 924 380 924 335 880 c 5,0,-1
EndSplineSet
Fore
SplineSet
641 1190 m 0xc8
 681 1190 714 1186 741 1178 c 1
 741 1026 l 1
 737 1029 716 1030 679 1030 c 0
 513 1030 354 911 336 894 c 1
 336 0 l 1
 146 0 l 1xd0
 146 1169 l 1
 289 1169 l 1xa8
 319 977 l 1
 428 1119 535 1190 641 1190 c 0xc8
EndSplineSet
EndChar

StartChar: s
Encoding: 115 115 81
Width: 1045
GlyphClass: 2
Flags: W
HStem: -23 150<296.949 676.663> 1042 148<323.785 694.435>
VStem: 101 160<793.513 984.394> 761 172<202.144 428.609>
DStem2: 425 737 396 562 0.950309 -0.311308<-176.379 400.636>
LayerCount: 3
Fore
SplineSet
111 100 m 9
 175 245 l 1
 263 169 398 127 482 127 c 0
 631 127 761 178 761 314 c 0
 761 430 678 470 570 505 c 2
 396 562 l 2
 146 644 101 740 101 891 c 0
 101 1011 195 1190 498 1190 c 0
 662 1190 835 1106 880 1067 c 1
 818 924 l 1
 729 994 619 1042 509 1042 c 0
 315 1042 261 964 261 880 c 0
 261 820 290 785 425 737 c 2
 593 678 l 2
 890 574 933 461 933 309 c 0
 933 53 695 -23 495 -23 c 0
 352 -23 175 46 111 100 c 9
EndSplineSet
Layer: 2
SplineSet
272 717 m 6
 272 1012 436 1057 546 1057 c 4
 673 1057 872 998 872 682 c 5
 272 682 l 5
 272 717 l 6
872 567 m 5
 872 313 803 127 526 127 c 4
 413 127 311 166 220 244 c 5
 158 99 l 5
 271 16 449 -23 538 -23 c 4
 878 -23 1062 211 1062 578 c 4
 1062 973 843 1190 547 1190 c 4
 255 1190 104 981 104 676 c 4
 104 641 107 605 112 567 c 5
 872 567 l 5
EndSplineSet
EndChar

StartChar: t
Encoding: 116 116 82
Width: 877
GlyphClass: 2
Flags: W
HStem: -16 147.156<437.911 666.772> 1065 104<44 227 417 750> 1556 20G<346.565 417>
VStem: 227 190<147.687 1065> 255 162<1169 1530>
LayerCount: 3
Fore
SplineSet
511 -16 m 0xf0
 306 -16 227 85 227 350 c 2
 227 1065 l 1xf0
 44 1065 l 1
 44 1169 l 1
 255 1169 l 1
 255 1530 l 1
 417 1576 l 1
 417 1169 l 1xe8
 750 1169 l 5
 750 1065 l 5
 417 1065 l 1
 417 298.5 l 2
 417 162 450 131.156 515.202 131.156 c 0
 560.763 131.156 622.005 148.074 703 196 c 1
 741 217 l 1
 808 94 l 1
 761 64 l 2
 751 58 616 -16 511 -16 c 0xf0
EndSplineSet
EndChar

StartChar: u
Encoding: 117 117 83
Width: 1244
GlyphClass: 2
Flags: W
HStem: -20 143<412.683 738.363> 0 21G<953.932 1098> 1149 20G<132 322 908 1098>
VStem: 132 190<222.026 1169> 908 190<237.46 1169> 957 141<0 93.4495>
LayerCount: 3
Back
SplineSet
1098 880 m 5,0,-1
 1098 0 l 5,1,-1
 908 0 l 5,2,-1
 908 1169 l 5,3,-1
 1048 1169 l 5,4,-1
 1072 982 l 5,5,6
 1134 1060 1134 1060 1263 1124 c 132,-1,7
 1392 1188 1392 1188 1521 1188 c 4,8,9
 1571 1188 1571 1188 1617 1178.5 c 132,-1,10
 1663 1169 1663 1169 1715 1139 c 132,-1,11
 1767 1109 1767 1109 1804.5 1060 c 132,-1,12
 1842 1011 1842 1011 1867 925.5 c 132,-1,13
 1892 840 1892 840 1892 727 c 6,14,-1
 1892 0 l 5,15,-1
 1702 0 l 5,16,-1
 1702 727 l 6,17,18
 1702 800 1702 800 1691 856 c 132,-1,19
 1680 912 1680 912 1655.5 956.5 c 132,-1,20
 1631 1001 1631 1001 1586 1024 c 132,-1,21
 1541 1047 1541 1047 1478 1047 c 4,22,23
 1376 1047 1376 1047 1259.5 985.5 c 132,-1,24
 1143 924 1143 924 1098 880 c 5,0,-1
EndSplineSet
Fore
SplineSet
322 442 m 2xb4
 322 252 375 123 554 123 c 0
 741 123 860 229 908 274 c 1
 908 1169 l 1
 1098 1169 l 1xb8
 1098 0 l 1
 957 0 l 1x74
 930 176 l 1
 810 42 691 -20 544 -20 c 0
 297 -20 132 108 132 442 c 2
 132 1169 l 1
 322 1169 l 1
 322 442 l 2xb4
EndSplineSet
Layer: 2
SplineSet
550 -20 m 4xb4
 708 -20 840 83 920 178 c 5
 948 0 l 5
 1088 0 l 5x6c
 1088 1657 l 5
 898 1692 l 5
 898 1030 l 5
 880 1051 728 1190 550 1190 c 4
 169 1190 74 830 74 584 c 4
 74 270 206 -20 550 -20 c 4xb4
256 584 m 4
 256 811 310 1047 543 1047 c 4
 699 1047 850 947 898 902 c 5
 898 273 l 5
 774 155 642 123 543 123 c 4xb4
 313 123 256 357 256 584 c 4
EndSplineSet
EndChar

StartChar: v
Encoding: 118 118 84
Width: 1099
GlyphClass: 2
Flags: W
HStem: 0 21G<431.208 665.826> 1149 20G<41 240.805 856.14 1058>
LayerCount: 3
Fore
SplineSet
659 0 m 1
 438 0 l 1
 41 1169 l 1
 235 1169 l 1
 547 94 l 1
 862 1169 l 1
 1058 1169 l 1
 659 0 l 1
EndSplineSet
EndChar

StartChar: w
Encoding: 119 119 85
Width: 1598
GlyphClass: 2
Flags: W
HStem: 0 21G<336.525 552.804 1044.71 1261.47> 1149 20G<22 210.478 693.062 904.776 1385.42 1576>
DStem2: 440 124 548 0 0.239693 0.970849<0 928.783> 900 1169 787 995 0.232248 -0.972656<142.998 1076.43>
LayerCount: 3
Fore
SplineSet
787 995 m 1
 548 0 l 1
 342 0 l 1
 22 1169 l 1
 206 1169 l 1
 440 124 l 1
 698 1169 l 1
 900 1169 l 1
 1150 122 l 1
 1390 1169 l 1
 1576 1169 l 1
 1256 0 l 1
 1050 0 l 1
 787 995 l 1
EndSplineSet
EndChar

StartChar: x
Encoding: 120 120 86
Width: 1084
GlyphClass: 2
Flags: W
HStem: 0 21G<47 272.034 818.134 1034> 1149 20G<43 272.034 819.537 1041>
LayerCount: 3
Fore
SplineSet
43 1169 m 1
 260 1169 l 1
 541 702 l 1
 832 1169 l 1
 1041 1169 l 1
 635 584 l 1
 1034 0 l 1
 830 0 l 1
 547 477 l 1
 260 0 l 1
 47 0 l 1
 455 584 l 1
 43 1169 l 1
EndSplineSet
EndChar

StartChar: y
Encoding: 121 121 87
Width: 1090
GlyphClass: 2
Flags: W
HStem: -459 125<191 284.046> 1149 20G<9 218.265 860.878 1072>
DStem2: 476 4 635 -37 0.340679 0.94018<-289.333 0 204.935 348.025>
LayerCount: 3
Fore
SplineSet
567 189 m 1
 867 1169 l 1
 1072 1169 l 1
 635 -37 l 1
 584 -190 498 -459 191 -459 c 1
 140 -334 l 1
 340 -299 395 -236 476 4 c 1
 9 1169 l 1
 211 1169 l 1
 567 189 l 1
EndSplineSet
EndChar

StartChar: z
Encoding: 122 122 88
Width: 1008
GlyphClass: 2
Flags: W
HStem: 0 145<278 904> 1029 140<132 740>
DStem2: 102 166 278 145 0.59447 0.804118<87.7402 1073.23>
LayerCount: 3
Fore
SplineSet
904 1169 m 1
 904 1004 l 1
 278 145 l 1
 904 145 l 1
 904 0 l 1
 102 0 l 1
 102 166 l 1
 740 1029 l 1
 132 1029 l 1
 132 1169 l 1
 904 1169 l 1
EndSplineSet
EndChar

StartChar: bar
Encoding: 124 124 89
Width: 600
GlyphClass: 2
Flags: W
VStem: 184 178<-111 1696>
LayerCount: 3
Fore
SplineSet
184 -111 m 1
 184 1696 l 1
 362 1696 l 1
 362 -111 l 1
 184 -111 l 1
EndSplineSet
EndChar

StartChar: macron
Encoding: 175 175 99
Width: 1003
GlyphClass: 2
Flags: W
HStem: 98 117<98 780>
LayerCount: 3
Fore
SplineSet
780 98 m 1
 98 98 l 1
 98 215 l 1
 780 215 l 1
 780 98 l 1
EndSplineSet
EndChar

StartChar: ogonek
Encoding: 265 731 101
Width: 411
GlyphClass: 2
Flags: W
HStem: 80 72<1410.5 1483>
VStem: 1139 143<-272.303 -27.5004>
LayerCount: 3
Fore
SplineSet
1483 80 m 1
 1400.87 49.8299 1282 -15.4 1282 -158.5 c 0
 1282 -268.833 1348.33 -324 1481 -324 c 0
 1551 -324 1608.67 -312.667 1654 -290 c 1
 1677 -290 l 1
 1677 -412 l 1
 1552.76 -500.745 1139 -485.778 1139 -176 c 0
 1139 20.8 1309.67 113.766 1483 152 c 1
 1483 80 l 1
EndSplineSet
EndChar

StartChar: acute
Encoding: 180 180 103
Width: 1097
GlyphClass: 2
Flags: W
HStem: 328 637
VStem: 489 391
LayerCount: 3
Fore
SplineSet
546 328 m 1
 489 354 l 1
 648 965 l 1
 880 874 l 1
 546 328 l 1
EndSplineSet
EndChar

StartChar: caron
Encoding: 269 711 106
Width: 1625
GlyphClass: 2
Flags: W
HStem: 358 530
VStem: 522 581
LayerCount: 3
Fore
SplineSet
874 358 m 21
 760 358 l 13
 522 888 l 5
 708 888 l 5
 810 452 l 5
 825 452 l 5
 918 888 l 5
 1103 888 l 5
 874 358 l 21
EndSplineSet
EndChar

StartChar: cedilla
Encoding: 184 184 107
Width: 364
GlyphClass: 2
Flags: W
HStem: -578 114<929.931 1221.79> -558 117<928 1098.11> -186 88<1099 1175.53>
VStem: 978 121<-98 76> 1239 125<-448.579 -245.054>
LayerCount: 3
Fore
SplineSet
1100 -464 m 0xb8
 1184.63 -464 1239 -452.499 1239 -348 c 0
 1239 -240 1152 -186 978 -186 c 1
 978 76 l 1
 1099 76 l 1
 1099 -98 l 1
 1195.28 -98 1364 -146.8 1364 -342 c 0
 1364 -480.391 1331.4 -578 1142 -578 c 0xb8
 1059.14 -578 995.81 -571.333 952 -558 c 1
 928 -558 l 1
 928 -441 l 1x78
 1002.67 -456.333 1060 -464 1100 -464 c 0xb8
EndSplineSet
EndChar

StartChar: AE
Encoding: 198 198 117
Width: 2109
GlyphClass: 2
Flags: W
HStem: 0 143<1161 1845> 371 102<496 1004> 776 115<1161 1774> 1436 143<1159 1817>
VStem: 1004 157<143 371 473 776 891 1436>
DStem2: 53 0 262 0 0.463525 0.886084<96.8766 510.902 624.459 624.459>
LayerCount: 3
Fore
SplineSet
1845 0 m 1
 1006 0 l 1
 1006 371 l 1
 446 371 l 1
 262 0 l 1
 53 0 l 1
 879 1579 l 1
 1817 1579 l 1
 1817 1436 l 1
 1159 1436 l 1
 1159 891 l 1
 1774 891 l 1
 1774 776 l 1
 1161 776 l 1
 1161 143 l 1
 1845 143 l 1
 1845 0 l 1
1004 1458.61 m 1
 496 473 l 1
 1004 473 l 1
 1004 1458.61 l 1
EndSplineSet
EndChar

StartChar: germandbls
Encoding: 223 223 139
Width: 1533
GlyphClass: 2
Flags: W
HStem: -129 156<526 872.545> -6 21G<156 332.364> 774 131<494 827.63> 774 70<872 970.402> 1436 143<447.534 849.883>
VStem: 156 194<16 1328.08> 946 172<1003.44 1344.66> 1118 182<220.728 594.881>
LayerCount: 3
Fore
SplineSet
518 905 m 1xaf
 832.8 922.838 945.099 929.724 946 1200 c 0
 946 1384.78 819.444 1436 625 1436 c 0
 394.713 1436 350 1322 350 1018 c 2
 350 16 l 1
 156 -6 l 1
 156 991 l 1
 142.818 1388.37 266.565 1579 625 1579 c 0
 953.667 1579 1118 1444.67 1118 1176 c 0
 1118 995.332 1035.19 864.633 872 844 c 1x5f
 1121.33 844 1300 683.388 1300 399 c 2
 1300 395 l 2
 1300 -24.2 902.942 -129 526 -129 c 1
 526 27 l 1
 1023.48 27 1118 185.8 1118 424 c 2
 1118 432 l 2
 1118 637.2 970.402 774 545 774 c 2
 494 774 l 1
 494 905 l 1
 518 905 l 1xaf
EndSplineSet
EndChar

StartChar: oslash
Encoding: 248 248 161
Width: 1293
GlyphClass: 2
Flags: W
HStem: -20 137<532.377 818.685> 1051 139<473.147 771.865>
VStem: 116 182<319.693 845.463> 994 183<319.317 845.415>
DStem2: 342 -168 430 -198 0.3262 0.945301<0.346548 1619.77>
LayerCount: 3
Fore
SplineSet
342 -168 m 1
 871 1365 l 1
 952 1335 l 1
 430 -198 l 1
 342 -168 l 1
298 582 m 0
 298 315 397 117 646 117 c 0
 895 117 994 314 994 582 c 0
 994 849 895 1051 646 1051 c 0
 397 1051 298 850 298 582 c 0
116 582 m 0
 116 911.284 282.651 1190 646 1190 c 0
 1009.4 1190 1177 912.074 1177 582 c 0
 1177 250.735 1008.18 -20 646 -20 c 0
 283.857 -20 116 251.454 116 582 c 0
EndSplineSet
EndChar

StartChar: exclamdown
Encoding: 161 161 169
Width: 886
GlyphClass: 2
Flags: W
HStem: -14.571 21G<263.192 539.808> 1376 203<293 502>
VStem: 293 209<1376 1579> 348 107<962.281 1161>
LayerCount: 3
Fore
SplineSet
502 1579 m 1xe0
 502 1376 l 1
 293 1376 l 1
 293 1579 l 1
 502 1579 l 1xe0
348 1161 m 1xd0
 455 1161 l 1
 539.808 -14.571 l 1
 263.192 -14.571 l 1
 348 1161 l 1xd0
EndSplineSet
EndChar

StartChar: cent
Encoding: 162 162 170
Width: 1072
GlyphClass: 2
Flags: W
HStem: -23 150<464.546 843.864> 1040 150<468.004 843.625>
VStem: 112 190<324.318 848.683> 569 81<-159 190.704> 630 74<979.296 1329>
LayerCount: 3
Fore
SplineSet
569 -159 m 1xf0
 650 -159 l 1xf0
 704 1329 l 1
 630 1329 l 1xe8
 569 -159 l 1xf0
302 580 m 0
 302 902 430 1040 640 1040 c 0
 762 1040 866 1001 954 924 c 1
 1011 1057 l 1
 885 1146 756 1190 623 1190 c 0
 418 1190 112 1064 112 580 c 0
 112 93 419 -23 620 -23 c 0
 757 -23 887 22 1011 111 c 1
 954 245 l 1
 869 166 759 127 625 127 c 0
 458 127 302 234 302 580 c 0
EndSplineSet
Layer: 2
SplineSet
112 580 m 4
 112 1064 418 1190 623 1190 c 4
 756 1190 885 1146 1011 1057 c 5
 954 924 l 5
 866 1001 762 1040 640 1040 c 4
 457 1040 370 933 335 848 c 4
 313 796 302 715 302 608 c 6
 302 593 l 6
 302 295 378 227 466 169 c 4
 509 141 562 127 625 127 c 4
 759 127 869 166 954 245 c 5
 1011 111 l 5
 887 22 757 -23 620 -23 c 4
 419 -23 112 93 112 580 c 4
EndSplineSet
EndChar

StartChar: yen
Encoding: 165 165 171
Width: 1429
GlyphClass: 2
Flags: W
HStem: 0 21G<545 735> 1559 20G<31 256.005 1023.89 1249>
VStem: 545 190<0 430>
LayerCount: 3
Fore
SplineSet
723 817 m 1
 1032 1579 l 1
 1249 1579 l 1
 735 430 l 1
 735 0 l 1
 545 0 l 1
 545 430 l 1
 31 1579 l 1
 248 1579 l 1
 553 817 l 1
 635 530 l 1
 723 817 l 1
EndSplineSet
EndChar

StartChar: brokenbar
Encoding: 166 166 172
Width: 600
GlyphClass: 2
Flags: W
HStem: 0 21G<174 362> 1559 20G<174 362>
VStem: 174 188<0 690 889 1579>
LayerCount: 3
Fore
SplineSet
174 889 m 1
 174 1579 l 1
 362 1579 l 1
 362 889 l 1
 174 889 l 1
174 0 m 1
 174 690 l 1
 362 690 l 1
 362 0 l 1
 174 0 l 1
EndSplineSet
EndChar

StartChar: copyright
Encoding: 169 169 173
Width: 2144
GlyphClass: 2
Flags: W
HStem: -18 118<712.232 1208.14> 281 118<801.892 1188.1> 1190 119<804.185 1196.85> 1491 119<714.423 1205.8>
VStem: 125 141<538.491 1032.87> 508 149<557.62 1026.44> 1651 141<558.62 1040.48>
LayerCount: 3
Fore
SplineSet
961 100 m 0
 1362.47 100.764 1651 415.25 1651 800 c 0
 1651 1080.65 1455.59 1491 942.5 1491 c 0
 605.657 1491 266 1220.07 266 793.5 c 0
 266 408.745 545.766 100 961 100 c 0
125 794.5 m 0
 125 1286.68 537.944 1610 947 1610 c 0
 1431.2 1610 1677.52 1281.52 1754 1040 c 0
 1779.33 960 1792 869 1792 767 c 0
 1792 571.457 1687.64 203.386 1266.5 40 c 0
 1166.83 1.33333 1061.83 -18 951.5 -18 c 0
 520.029 -18 125 307 125 794.5 c 0
967 1190 m 0
 742.708 1190 657 1015.51 657 795 c 0
 657 531 763.667 399 977 399 c 0
 1065 399 1155.67 422.333 1249 469 c 1
 1249 352 l 1
 1154.33 304.667 1068 281 990 281 c 0
 604.4 281 508 561.534 508 795 c 0
 508 1102.61 672.313 1309 971 1309 c 0
 1070.2 1309 1198.84 1270.56 1239 1245 c 1
 1239 1135 l 1
 1191.08 1158.96 1082.5 1190 967 1190 c 0
EndSplineSet
EndChar

StartChar: guillemotleft
Encoding: 171 171 174
Width: 2037
GlyphClass: 2
Flags: W
DStem2: 539 663 333 663 0.735707 -0.6773<0 738.744> 333 663 539 663 0.735707 0.6773<151.556 890.3> 1070 663 864 663 0.735707 -0.6773<0 738.744> 864 663 1070 663 0.735707 0.6773<151.556 890.3>
LayerCount: 3
Fore
SplineSet
333 663 m 1
 988 1266 l 1
 1090 1156 l 1
 539 663 l 1
 1090 170 l 1
 988 60 l 1
 333 663 l 1
864 663 m 1
 1519 1266 l 1
 1621 1156 l 1
 1070 663 l 1
 1621 170 l 1
 1519 60 l 1
 864 663 l 1
EndSplineSet
EndChar

StartChar: logicalnot
Encoding: 172 172 175
Width: 1724
GlyphClass: 2
Flags: W
HStem: 338 121<94 1272> 1154 20G<1272 1448>
VStem: 1272 176<459 1174>
LayerCount: 3
Fore
SplineSet
1448 1174 m 1
 1448 338 l 1
 94 338 l 1
 94 459 l 1
 1272 459 l 1
 1272 1174 l 1
 1448 1174 l 1
EndSplineSet
EndChar

StartChar: registered
Encoding: 174 174 176
Width: 1366
GlyphClass: 2
Flags: W
HStem: 584 92<408.839 811.856> 1071 76<535 605.109> 1327 76<535 713.513> 1538 94<408.738 810.893>
VStem: 66 100<917.492 1296.61> 434 98<829 1071 1147 1327> 727 96<1164.01 1311.3> 1057 100<916.911 1292.49>
LayerCount: 3
Fore
SplineSet
590 1147 m 2
 670.975 1147 727 1166.6 727 1245 c 0
 727 1317.05 673.126 1327 535 1327 c 1
 535 1147 l 1
 590 1147 l 2
823 1250 m 0
 823 1159.81 787.782 1117.16 669.076 1088.24 c 1
 836 856 l 1
 832 854.667 823.333 850.667 810 844 c 2
 767.5 822 l 2
 752.5 814 744.333 809.667 743 809 c 1
 636.333 983 582.667 1070.33 582 1071 c 2
 532 1071 l 1
 532 829 l 1
 434 829 l 1
 434 1403 l 1
 545 1403 l 2
 703.612 1403 823 1372.4 823 1250 c 0
611 584 m 0
 297.608 584 66 822.243 66 1108 c 0
 66 1393.54 297.403 1632 611 1632 c 0
 918.847 1632 1157 1400.06 1157 1108 c 0
 1157 815.939 918.847 584 611 584 c 0
610 1538 m 0
 351.02 1538 166 1347.74 166 1106 c 0
 166 864.031 351.292 676 610 676 c 0
 870.906 676 1057 867.324 1057 1106 c 0
 1057 1350.24 866.489 1538 610 1538 c 0
EndSplineSet
EndChar

StartChar: plusminus
Encoding: 177 177 177
Width: 1003
GlyphClass: 2
Flags: W
HStem: -55 143<100 801> 518 133<66 379 520 834>
VStem: 379 141<174 518 651 995>
LayerCount: 3
Fore
SplineSet
834 518 m 1
 520 518 l 1
 520 174 l 1
 379 174 l 1
 379 518 l 1
 66 518 l 1
 66 651 l 1
 379 651 l 1
 379 995 l 1
 520 995 l 1
 520 651 l 1
 834 651 l 1
 834 518 l 1
801 -55 m 1
 100 -55 l 1
 100 88 l 1
 801 88 l 1
 801 -55 l 1
EndSplineSet
EndChar

StartChar: uni00B5
Encoding: 181 181 178
Width: 1372
GlyphClass: 2
Flags: W
HStem: -20 143<395.759 737.722> 1149 20G<115 307 888 1096>
VStem: 115 192<-291 74 220.68 1169> 888 208<234.359 1169> 950 146<16 107.989>
LayerCount: 3
Fore
SplineSet
539 -20 m 0xe8
 394.801 -20 327.577 39.7059 307 74 c 1
 307 -291 l 1
 115 -291 l 1
 115 1169 l 1
 307 1169 l 1
 307 442 l 2
 307 194.935 400.6 123 541 123 c 0
 736.07 123 867.874 249.849 888 274 c 1
 888 1169 l 1
 1096 1169 l 1xf0
 1096 16 l 1
 950 16 l 1
 926 170 l 1
 812 43.3333 683 -20 539 -20 c 0xe8
EndSplineSet
EndChar

StartChar: Eth
Encoding: 208 208 186
Width: 1640
GlyphClass: 2
Flags: W
HStem: 0 143<350 916.062> 764 131<-6 584> 1436 143<350 919.815>
VStem: 156 194<143 1436> 1167 201<442.352 1138.53>
LayerCount: 3
Fore
SplineSet
1167 789 m 0
 1167 1172.65 1065.98 1436 709 1436 c 2
 350 1436 l 1
 350 143 l 1
 709 143 l 2
 1065.17 143 1167 403.918 1167 789 c 0
709 1579 m 1
 1165.95 1569.84 1368 1291.81 1368 788 c 0
 1368 262.667 1148.33 2.77556e-17 709 0 c 2
 156 0 l 1
 156 1579 l 1
 709 1579 l 1
584 764 m 5
 -6 764 l 5
 -6 895 l 5
 584 895 l 5
 584 764 l 5
EndSplineSet
EndChar

StartChar: Thorn
Encoding: 222 222 192
Width: 1456
GlyphClass: 2
Flags: W
HStem: 0 21G<156 350> 504 145<350 868.818> 1300 144<350 893.502> 1559 20G<156 350>
VStem: 156 194<0 504 649 1300 1444 1579> 1063 182<791.745 1163.63>
LayerCount: 3
Fore
SplineSet
1245 973 m 0
 1245 691.6 1086.31 504 512 504 c 2
 350 504 l 1
 350 0 l 1
 156 0 l 1
 156 1579 l 1
 350 1579 l 1
 350 1444 l 1
 547 1444 l 2
 1109.82 1444 1245 1270.32 1245 973 c 0
512 649 m 2
 976.777 649 1063 773 1063 959 c 0
 1063 1200.3 987.642 1300 559 1300 c 2
 350 1300 l 1
 350 649 l 1
 512 649 l 2
EndSplineSet
EndChar

StartChar: thorn
Encoding: 254 254 204
Width: 1361
GlyphClass: 2
Flags: W
HStem: -487 21G<129 298.091> -20 143<458.155 817.752> 1047 143<495.445 817.134>
VStem: 129 209.469<339.865 929.843> 129 186<-465 117 216.735 583.318 1004 1565> 961 182<307.037 857.267>
LayerCount: 3
Fore
SplineSet
1143 584 m 0xec
 1143 279.524 1006.07 -20 674 -20 c 0
 508 -20 388.333 25.6667 315 117 c 1
 315 -465 l 1
 129 -487 l 1
 129 1565 l 1
 313 1565 l 1
 313 1004 l 1
 388.254 1096.7 515.041 1190 674.5 1190 c 0
 1013.73 1190 1143 885.346 1143 584 c 0xec
961 542.667 m 0
 961 757.408 921.279 1047 674 1047 c 0
 502.152 1047 365.952 919.087 338.469 889.988 c 1xf4
 321.622 243.51 l 1
 400.478 178.368 544.7 123 681.5 123 c 0
 774.637 123 885.306 171.79 932 343 c 0
 951.333 413.889 961 480.444 961 542.667 c 0
EndSplineSet
EndChar

StartChar: OE
Encoding: 337 338 245
Width: 2253
GlyphClass: 2
Flags: W
HStem: -41 152<576.294 977.96> 0 143<1404 2193> 776 115<1404 2082> 1436 143<1404 2180> 1458 152<576.752 976.051>
VStem: 123 201<438.989 1127.15> 1210 194<143 776 891 1436> 1211 193<423.58 1124.05>
LayerCount: 3
Fore
SplineSet
1404 784 m 0xad
 1404 400 1277 -41 796 -41 c 0
 534 -41 123 66 123 784 c 0
 123 1486 536 1610 784 1610 c 0
 1278 1610 1404 1124 1404 784 c 0xad
1211 784 m 0
 1211 1297 1051 1458 779 1458 c 0
 415 1458 324 1156 324 784 c 0
 324 285 506 111 779 111 c 0
 1142 111 1211 420 1211 784 c 0
EndSplineSet
Refer: 35 69 N 1 0 0 1 1081 0 2
EndChar

StartChar: florin
Encoding: 368 402 276
Width: 876
GlyphClass: 2
Flags: W
HStem: -311 143<-97.5348 199.295> 1024 127<-47 238 428 780> 1516 143<468.706 756.404>
VStem: 238 190<-131.95 1024 1151 1470.29>
LayerCount: 3
Fore
SplineSet
611.5 1516 m 0
 434.865 1516.12 437.667 1447.57 424 1243 c 1
 424 1151 l 1
 780 1151 l 1
 780 1024 l 1
 428 1024 l 1
 428 150 l 2
 428 -222.714 294.4 -311 94 -311 c 0
 25.2857 -311 -36.7143 -296.667 -92 -268 c 1
 -119 -268 l 1
 -119 -117 l 1
 -46.3333 -151 0.833333 -168 54.5 -168 c 0
 230.454 -167.799 238 -99.3003 238 106 c 2
 238 1024 l 1
 -47 1024 l 1
 -47 1151 l 1
 242 1151 l 1
 242 1198 l 2
 242 1571.2 374.4 1659 573 1659 c 0
 641.714 1659 703.714 1644.67 759 1616 c 1
 786 1616 l 1
 786 1464 l 1
 713.333 1498.67 665.167 1516 611.5 1516 c 0
EndSplineSet
EndChar

StartChar: breve
Encoding: 441 728 349
Width: 698
GlyphClass: 2
Flags: W
HStem: 0 143<598.963 953.037>
VStem: 399 143<201.678 304> 1010 143<201.678 304>
LayerCount: 3
Fore
SplineSet
776 143 m 0
 572 143 542 238 542 305 c 5
 399 304 l 5
 399 104 562 0 776 0 c 0
 990 0 1153 104 1153 304 c 5
 1010 305 l 5
 1010 238 980 143 776 143 c 0
EndSplineSet
Layer: 2
SplineSet
472 230 m 5
 494.898 218.551 552.521 143 776 143 c 4
 999.362 143 1057.07 218.536 1080 230 c 5
 1153 141 l 5
 1085.67 47 960 0 776 0 c 4
 592 0 466.333 47 399 141 c 5
 472 230 l 5
EndSplineSet
EndChar

StartChar: ring
Encoding: 442 730 350
Width: 290
GlyphClass: 2
Flags: W
HStem: 340 106<131.492 292.741> 631 112<127.479 293.877>
VStem: -2 121<458.228 620.485> 305 123<457.303 619.953>
LayerCount: 3
Fore
SplineSet
428 542.5 m 0
 428 418.038 342.405 340 214 340 c 0
 86.8582 340 -2 417.909 -2 543 c 0
 -2 670.913 90.2937 743 213.5 743 c 0
 335.871 743 428 671.767 428 542.5 c 0
119 541 m 0
 119 511.4 133.21 446 212.5 446 c 0
 291.248 446 305 508.532 305 539.5 c 0
 305 570.372 292.205 631 211 631 c 0
 149.667 631 119 601 119 541 c 0
EndSplineSet
EndChar

StartChar: tilde
Encoding: 443 732 351
Width: 653
GlyphClass: 2
Flags: W
HStem: 390 139<480.483 648.271> 509 145<217.149 384.514>
VStem: 53 156<394 506.062> 657 156<533.075 640>
LayerCount: 3
Fore
SplineSet
254 654 m 4x70
 402.619 654 500.309 529 598 529 c 4
 637.333 529 657 566 657 640 c 5
 813 640 l 5
 813 488.667 756.333 400.667 643 390 c 5
 621 390 l 6xb0
 474.468 390 340.136 509 268.111 509 c 4
 232.644 509 209 487.524 209 394 c 5
 53 394 l 5
 53 563.333 120 654 254 654 c 4x70
EndSplineSet
EndChar

StartChar: hungarumlaut
Encoding: 444 733 352
Width: 1482
GlyphClass: 2
Flags: W
HStem: 18 572
VStem: 449 620.81
LayerCount: 3
Fore
SplineSet
731 18 m 1
 856 590 l 1
 1069.81 591.988 l 1
 850 18 l 1
 731 18 l 1
449 18 m 1
 474.333 250.667 497.333 441.333 518 590 c 1
 733 590 l 1
 708.961 544.453 664.628 395.453 600 143 c 1
 569 18 l 1
 449 18 l 1
EndSplineSet
EndChar

StartChar: pi
Encoding: 445 960 353
Width: 1574
GlyphClass: 2
Flags: W
HStem: -23 156<1055.53 1282.53> -2 162<95.1472 211.267> 971 149<297 498 686 956 1153 1354.59>
DStem2: 369 512 559 473 0.247111 0.968987<-283.058 476.642> 837.854 247.657 1035.64 244.851 0.159549 0.98719<-47.6406 732.927>
LayerCount: 3
Fore
SplineSet
1035.64 244.851 m 1x60
 1035.64 175.235 1074.68 133 1143.5 133 c 0
 1204.08 133 1256.25 141.333 1300 158 c 1
 1321 158 l 1
 1307.67 100 1294.67 54.6667 1282 6 c 1
 1233.33 -13.3333 1171.33 -23 1096 -23 c 0xa0
 930.667 -23 808.946 70.6691 837.854 247.657 c 2
 956 971 l 1
 686 971 l 1
 559 473 l 1
 432.343 -1.96427 237.964 -2 98 -2 c 1
 95.5171 15.3802 59.4542 142.821 57 160 c 1
 202.54 160 286.655 215.557 369 512 c 2
 498 971 l 1
 270 971 l 1
 297 1120 l 1
 1378 1120 l 1
 1367.33 1054.67 1358.67 1005 1352 971 c 1
 1153 971 l 1
 1035.64 244.851 l 1x60
EndSplineSet
EndChar

StartChar: quotesinglbase
Encoding: 671 8218 579
Width: 497
GlyphClass: 2
Flags: W
HStem: -201 64<157.897 190.422> -14 198<127 254>
VStem: 127 227<-14 184>
LayerCount: 3
Fore
SplineSet
127 -14 m 1
 127 184 l 1
 342 184 l 1
 350 142 354 88.8333 354 24.5 c 0
 354 -110.8 301.384 -162.496 166 -201 c 1
 161.465 -194.953 138.364 -147.925 129 -137 c 1
 195.775 -113.886 230.653 -85.4143 254 -14 c 1
 127 -14 l 1
EndSplineSet
EndChar

StartChar: quotedblleft
Encoding: 672 8220 580
Width: 497
GlyphClass: 2
Flags: W
HStem: 1194 199<223 350 537 664> 1516 63<286.49 319.043 600.47 633.043>
VStem: 123 227<1194 1393> 436 228<1194 1393>
LayerCount: 3
Fore
SplineSet
664 1393 m 1
 664 1194 l 1
 449 1194 l 1
 440.333 1236.67 436 1290.17 436 1354.5 c 0
 436 1489.2 489.03 1540.33 625 1579 c 1
 629.397 1573.14 652.64 1526.92 662 1516 c 1
 595.225 1492.89 560.347 1464.41 537 1393 c 1
 664 1393 l 1
350 1393 m 1
 350 1194 l 1
 135 1194 l 1
 127 1236.67 123 1290.17 123 1354.5 c 0
 123 1489.2 175.079 1540.34 311 1579 c 1
 315.397 1573.14 338.64 1526.92 348 1516 c 1
 281.225 1492.89 246.347 1464.41 223 1393 c 1
 350 1393 l 1
EndSplineSet
EndChar

StartChar: quotedblright
Encoding: 673 8221 581
Width: 497
GlyphClass: 2
Flags: W
HStem: 1194 61<-136.906 -110.42 152.387 184.571> 1380 199<-168 -41 123 250>
VStem: -168 227<1380 1579> 123 227<1380 1579>
LayerCount: 3
Fore
SplineSet
-168 1380 m 1
 -168 1579 l 1
 47 1579 l 1
 55 1535 59 1481 59 1417 c 0
 59 1283.2 7.0454 1232.69 -129 1194 c 1
 -133.003 1200 -156.838 1244.31 -166 1255 c 1
 -96.7299 1279.45 -62.9195 1312.95 -41 1380 c 1
 -168 1380 l 1
123 1380 m 1
 123 1579 l 1
 338 1579 l 1
 346 1535 350 1481 350 1417 c 0
 350 1283.2 296.15 1232.72 160 1194 c 1
 155.77 1199.64 133.993 1244.51 125 1255 c 1
 194.27 1279.45 228.081 1312.95 250 1380 c 1
 123 1380 l 1
EndSplineSet
EndChar

StartChar: quotedblbase
Encoding: 674 8222 582
Width: 497
GlyphClass: 2
Flags: W
HStem: -186 61<-136.906 -110.42 152.387 184.571> 0 199<-168 -41 123 250>
VStem: -168 227<0 199> 123 227<0 199>
LayerCount: 3
Fore
SplineSet
-168 0 m 1
 -168 199 l 1
 47 199 l 1
 55 155 59 101 59 37 c 0
 59 -96.8 7.04544 -147.308 -129 -186 c 1
 -133.003 -179.996 -156.838 -135.689 -166 -125 c 1
 -96.7298 -100.552 -62.9194 -67.0477 -41 0 c 1
 -168 0 l 1
123 0 m 1
 123 199 l 1
 338 199 l 1
 346 155 350 101 350 37 c 0
 350 -96.8 296.15 -147.278 160 -186 c 1
 155.77 -180.359 133.993 -135.492 125 -125 c 1
 194.27 -100.552 228.081 -67.0477 250 0 c 1
 123 0 l 1
EndSplineSet
EndChar

StartChar: dagger
Encoding: 675 8224 583
Width: 1294
GlyphClass: 2
Flags: W
HStem: 0 21G<487 678> 1020 141<152 487 680 1006>
VStem: 487 191<0 1020 1161 1468>
LayerCount: 3
Fore
SplineSet
1006 1020 m 1
 678 1020 l 1
 678 0 l 1
 487 0 l 1
 487 1020 l 1
 152 1020 l 1
 152 1161 l 1
 487 1161 l 1
 487 1468 l 1
 680 1468 l 1
 680 1161 l 1
 1006 1161 l 1
 1006 1020 l 1
EndSplineSet
EndChar

StartChar: daggerdbl
Encoding: 676 8225 584
Width: 1294
GlyphClass: 2
Flags: W
HStem: 0 21G<487 678> 305 139<152 487 678 1004> 1020 141<152 487 680 1006>
VStem: 487 191<0 305 444 1020 1161 1468>
LayerCount: 3
Fore
SplineSet
1006 1020 m 1
 678 1020 l 1
 678 444 l 1
 1004 444 l 1
 1004 305 l 1
 678 305 l 1
 678 0 l 1
 487 0 l 1
 487 305 l 1
 152 305 l 1
 152 444 l 1
 487 444 l 1
 487 1020 l 1
 152 1020 l 1
 152 1161 l 1
 487 1161 l 1
 487 1468 l 1
 680 1468 l 1
 680 1161 l 1
 1006 1161 l 1
 1006 1020 l 1
EndSplineSet
EndChar

StartChar: bullet
Encoding: 677 8226 585
Width: 1361
GlyphClass: 2
Flags: W
HStem: 358 670<472.005 825.912>
VStem: 301 698<525.733 858.691>
LayerCount: 3
Fore
SplineSet
649 358 m 0
 448.309 358 301 507.5 301 692 c 0
 301 876.33 448.166 1028 649 1028 c 0
 849.995 1028 999 876.318 999 692 c 0
 999 506.118 848.37 358 649 358 c 0
EndSplineSet
EndChar

StartChar: guilsinglleft
Encoding: 679 8249 587
Width: 1429
GlyphClass: 2
Flags: W
HStem: -12 21G<1188.48 1237>
LayerCount: 3
Fore
SplineSet
1237 950 m 1
 202.942 577.406 l 1
 1237 195 l 1
 1237 -12 l 1
 41 481 l 1
 41 666 l 1
 1237 1157 l 1
 1237 950 l 1
EndSplineSet
EndChar

StartChar: guilsinglright
Encoding: 680 8250 588
Width: 1429
GlyphClass: 2
Flags: W
HStem: -12 21G<41 89.5193>
LayerCount: 3
Fore
SplineSet
1074.16 578.039 m 1
 41 950 l 1
 41 1157 l 1
 1237 666 l 1
 1237 481 l 1
 41 -12 l 1
 41 195 l 1
 1074.16 578.039 l 1
EndSplineSet
EndChar

StartChar: Oslash
Encoding: 689 -1 599
Width: 1697
GlyphClass: 2
Flags: W
HStem: -41 152<555.235 963.313> 1458 152<556.535 963.313>
VStem: 96 201<432.521 1133.83> 1223 200<435.458 1133.96>
DStem2: 315 -113 381 -135 0.410135 0.912025<7.00439 1994.46>
LayerCount: 3
Fore
SplineSet
315 -113 m 1
 1133 1706 l 1
 1198 1683 l 1
 381 -135 l 1
 315 -113 l 1
1423 784 m 0
 1423 71.4262 1025.2 -41 760 -41 c 0
 278.055 -41 96 312.036 96 784 c 0
 96 1492.27 494.4 1610 760 1610 c 0
 1025.2 1610 1423 1492.97 1423 784 c 0
1223 785 m 0
 1223 1149.19 1130.4 1458 760 1458 c 0
 389.6 1458 297 1149.19 297 785 c 0
 297 425.996 389.6 111 760 111 c 0
 1130.4 111 1223 426.177 1223 785 c 0
EndSplineSet
EndChar

StartChar: afii10049
Encoding: 696 1071 606
Width: 1531
GlyphClass: 2
Flags: W
HStem: 0 21G<78 260 993 1188> 729 129<453.983 993> 1436 143<388.514 993>
VStem: 78 170<0 577.452 990.364 1319.01> 993 195<0 729 858 1436>
LayerCount: 3
Fore
SplineSet
776 729 m 1
 414.752 716.504 260 699.937 260 408 c 2
 260 0 l 1
 78 0 l 1
 78 393 l 2
 78 669.411 194.729 766.945 446 795 c 1
 240.62 800.953 78 949.793 78 1144.5 c 0
 78 1540.79 375.077 1579 795 1579 c 2
 1188 1579 l 1
 1188 0 l 1
 993 0 l 1
 993 729 l 1
 776 729 l 1
795 1436 m 2
 417.607 1436 248 1409.31 248 1153 c 0
 248 1046.73 284.167 971.9 356.5 928.5 c 0
 427.186 886.088 521.838 858 803 858 c 2
 993 858 l 1
 993 1436 l 1
 795 1436 l 2
EndSplineSet
EndChar

StartChar: afii10026
Encoding: 704 1048 614
Width: 1785
GlyphClass: 2
Flags: W
HStem: 0 21G<184 354 1284 1464> 1559 20G<184 365 1171.37 1464>
VStem: 184 181<0 188 457 1579> 1284 180<0 1473>
LayerCount: 3
Fore
SplineSet
365 457 m 1
 1186 1579 l 1
 1464 1579 l 1
 1464 0 l 1
 1284 0 l 1
 1284 1473 l 1
 1180 1260 l 1
 354 188 l 1
 354 0 l 1
 184 0 l 1
 184 1579 l 1
 365 1579 l 1
 365 457 l 1
EndSplineSet
EndChar

StartChar: afii10033
Encoding: 709 1055 619
Width: 1712
GlyphClass: 2
Flags: W
HStem: 0 21G<156 350 1126 1321> 1458 117<350 1126>
VStem: 156 194<0 1458> 1126 195<0 1458>
LayerCount: 3
Fore
SplineSet
156 1575 m 1
 1321 1575 l 1
 1321 0 l 1
 1126 0 l 1
 1126 1458 l 1
 350 1458 l 1
 350 0 l 1
 156 0 l 1
 156 1575 l 1
EndSplineSet
EndChar

StartChar: afii10042
Encoding: 710 1064 620
Width: 2052
GlyphClass: 2
Flags: W
HStem: -2 115<350 819 1014 1483> 1551 20G<156 350 819 1014 1483 1677>
VStem: 156 194<113 1571> 819 195<115 1571> 1483 194<115 1573>
CounterMasks: 1 38
LayerCount: 3
Fore
SplineSet
156 -2 m 1
 156 1571 l 1
 350 1571 l 1
 350 113 l 1
 819 113 l 1
 819 1571 l 1
 1014 1571 l 1
 1014 115 l 1
 1483 115 l 1
 1483 1573 l 1
 1677 1573 l 1
 1677 1.54545 l 1
 156 -2 l 1
EndSplineSet
EndChar

StartChar: afii10040
Encoding: 711 1062 621
Width: 1712
GlyphClass: 2
Flags: W
HStem: 0 115<350 1182> 1553 20G<156 350 1182 1376>
VStem: 156 194<115 1573> 1182 194<115 1573>
LayerCount: 3
Fore
SplineSet
156 0 m 1
 156 1573 l 1
 350 1573 l 1
 350 115 l 1
 1182 115 l 1
 1182 1573 l 1
 1376 1573 l 1
 1376 0 l 1
 156 0 l 1
EndSplineSet
EndChar

StartChar: afii10043
Encoding: 712 1065 622
Width: 2052
GlyphClass: 2
Flags: W
HStem: -2 115<350 819 1014 1483> 1551 20G<156 350 819 1014 1483 1677>
VStem: 156 194<113 1571> 819 195<115 1571> 1483 194<115 1573>
CounterMasks: 1 38
LayerCount: 3
Fore
SplineSet
156 -2 m 1
 156 1571 l 1
 350 1571 l 1
 350 113 l 1
 819 113 l 1
 819 1571 l 1
 1014 1571 l 1
 1014 115 l 1
 1483 115 l 1
 1483 1573 l 1
 1677 1573 l 1
 1677 1.54545 l 1
 156 -2 l 1
EndSplineSet
EndChar

StartChar: afii10076
Encoding: 713 1082 623
Width: 1290
GlyphClass: 2
Flags: W
HStem: 0 21G<131 315 893.739 1133> 1149 20G<131 315 853.373 1100>
VStem: 131 184<0 459 627 1167>
DStem2: 315 627 546.879 647.749 0.717939 0.696106<180.919 778.617> 546.879 647.749 432 555 0.670953 -0.7415<0 724.614>
LayerCount: 3
Fore
SplineSet
1100 1169 m 1
 546.879 647.749 l 1
 1133 0 l 1
 911 0 l 1
 432 555 l 1
 315 459 l 1
 315 0 l 1
 131 0 l 1
 131 1167 l 1
 315 1167 l 1
 315 627 l 1
 874 1169 l 1
 1100 1169 l 1
EndSplineSet
EndChar

StartChar: afii10060
Encoding: 714 1035 624
Width: 1384
GlyphClass: 2
Flags: W
HStem: 0 21G<131 336 928 1120> 1047 143<512.418 835.83> 1436 143<8 131 319 1151>
VStem: 131 205<0 929.552> 131 188<989 1436> 928 192<0 947.323>
LayerCount: 3
Fore
SplineSet
928 727 m 2xec
 928 916.737 875.255 1047 696 1047 c 0
 504.576 1047 362.821 918.398 336 890 c 1
 336 0 l 1
 131 0 l 1xf4
 131 1436 l 1
 8 1436 l 1
 8 1579 l 1
 1151 1579 l 1
 1151 1436 l 1
 319 1436 l 1
 319 989 l 1
 435 1123 561 1190 701 1190 c 0
 980.333 1190 1120 1035.67 1120 727 c 2
 1120 0 l 1
 928 0 l 1
 928 727 l 2xec
EndSplineSet
EndChar

StartChar: afii10051
Encoding: 715 1026 625
Width: 1384
GlyphClass: 2
Flags: W
HStem: -248 144<621.414 901.888> 0 21G<131 336> 1047 143<513.548 839.958> 1456 123<8 131 319 1151>
VStem: 131 205<0 929.552> 131 188<989 1456> 932 188<-72.3005 944.983>
LayerCount: 3
Fore
SplineSet
932 727 m 2xf6
 932 916.737 875.255 1047 696 1047 c 0
 504.576 1047 362.821 918.398 336 890 c 1
 336 0 l 1
 131 0 l 1xfa
 131 1456 l 1
 8 1456 l 1
 8 1579 l 1
 1151 1579 l 1
 1151 1456 l 1
 319 1456 l 1
 319 989 l 1
 358 1032.5 l 1
 414.659 1091.18 533.889 1190 696 1190 c 0
 950.4 1190 1120 1072.22 1120 727 c 2
 1120 102 l 2
 1120 -181.527 999.6 -248 819 -248 c 0
 750.422 -248 683.422 -232.667 618 -202 c 1
 586 -202 l 1
 586 -49 l 1
 636.015 -76.281 734.571 -104 795 -104 c 0
 894.506 -104 932 -57.9645 932 61 c 2
 932 727 l 2xf6
EndSplineSet
EndChar

StartChar: afii10046
Encoding: 716 1068 626
Width: 1404
GlyphClass: 2
Flags: W
HStem: 0 143<350 824.141> 786 129<350 827.471> 1559 20G<156 350>
VStem: 156 194<143 786 915 1579> 1001 183<285.518 643.557>
LayerCount: 3
Fore
SplineSet
483 143 m 2
 843.133 143 1001 207.6 1001 466 c 0
 1001 705.09 852.35 786 520 786 c 2
 350 786 l 1
 350 143 l 1
 483 143 l 2
1184 451 m 0
 1184 180.4 1032 2.41838e-05 483 0 c 2
 156 0 l 1
 156 1579 l 1
 350 1579 l 1
 350 915 l 1
 516 915 l 2
 1020.67 915 1184 729.4 1184 451 c 0
EndSplineSet
EndChar

StartChar: afii10045
Encoding: 717 1067 627
Width: 1404
GlyphClass: 2
Flags: W
HStem: 0 143<350 824.141> 786 129<350 827.471> 1559 20G<156 350 1370 1565>
VStem: 156 194<143 786 915 1579> 1001 183<285.518 643.557> 1370 195<0 1579>
LayerCount: 3
Fore
SplineSet
1565 0 m 1
 1370 0 l 1
 1370 1579 l 1
 1565 1579 l 1
 1565 0 l 1
483 143 m 2
 843.133 143 1001 207.6 1001 466 c 0
 1001 705.09 852.35 786 520 786 c 2
 350 786 l 1
 350 143 l 1
 483 143 l 2
1184 451 m 0
 1184 180.4 1032 2.41838e-05 483 0 c 2
 156 0 l 1
 156 1579 l 1
 350 1579 l 1
 350 915 l 1
 516 915 l 2
 1020.67 915 1184 729.4 1184 451 c 0
EndSplineSet
EndChar

StartChar: afii10044
Encoding: 718 1066 628
Width: 1404
GlyphClass: 2
Flags: W
HStem: 0 143<350 824.141> 786 129<350 827.471> 1559 20G<156 350>
VStem: 156 194<143 786 915 1579> 1001 183<285.518 643.557>
LayerCount: 3
Fore
SplineSet
483 143 m 2
 843.133 143 1001 207.6 1001 466 c 0
 1001 705.09 852.35 786 520 786 c 2
 350 786 l 1
 350 143 l 1
 483 143 l 2
1184 451 m 0
 1184 180.4 1032 2.41838e-05 483 0 c 2
 156 0 l 1
 156 1579 l 1
 350 1579 l 1
 350 915 l 1
 516 915 l 2
 1020.67 915 1184 729.4 1184 451 c 0
EndSplineSet
EndChar

StartChar: afii10059
Encoding: 719 1034 629
Width: 2461
GlyphClass: 2
Flags: W
HStem: 0 143<1239 1746.94> 768 145<1239 1753.78> 772 115<350 1044> 1559 20G<156 350 1044 1239>
VStem: 156 194<0 772 887 1579> 1044 195<143 768 913 1579> 1929 182<289.045 622.405>
LayerCount: 3
Fore
SplineSet
2111 438.5 m 0xde
 2111 175.4 1948.05 3.54412e-05 1411 0 c 2
 1044 0 l 1
 1044 772 l 1
 350 772 l 1
 350 0 l 1
 156 0 l 1
 156 1579 l 1
 350 1579 l 1
 350 887 l 1
 1044 887 l 1xbe
 1044 1579 l 1
 1239 1579 l 1
 1239 913 l 1
 1411 913 l 1
 1966.73 905.004 2111 722 2111 438.5 c 0xde
1929 455 m 0
 1929 705.4 1751.39 768 1411 768 c 2
 1239 768 l 1xde
 1239 143 l 1
 1411 143 l 2
 1695.46 143 1929 175.478 1929 455 c 0
EndSplineSet
EndChar

StartChar: afii10058
Encoding: 720 1033 630
Width: 2461
GlyphClass: 2
Flags: W
HStem: 0 143<1294 1807.14> 768 145<1294 1804.98> 1458 117<455 1100>
VStem: 242 188<201.884 1030.16> 270 185<1012.82 1458> 1100 194<143 768 913 1458> 1985 182<287.789 626.251>
LayerCount: 3
Fore
SplineSet
51 43 m 1xf6
 199.129 138.567 235.87 236.622 242 477 c 2xf6
 270 1575 l 1
 1294 1575 l 1
 1294 913 l 1
 1466 913 l 1
 2009.88 905.174 2167 727 2167 451 c 0
 2167 180.4 2015 2.41838e-05 1466 0 c 2
 1100 0 l 1
 1100 1458 l 1
 455 1458 l 1xee
 430 455 l 1
 430 142.136 268.662 -33.2327 96 -74 c 1
 51 43 l 1xf6
1985 455 m 0
 1985 705.4 1806.01 768 1466 768 c 2
 1294 768 l 1
 1294 143 l 1
 1466 143 l 2
 1749.55 143 1985 175.335 1985 455 c 0
EndSplineSet
EndChar

StartChar: afii10029
Encoding: 721 1051 631
Width: 1519
GlyphClass: 2
Flags: W
HStem: 5.24039e-06 147<42.3302 289.77> 1446 125<594 1180>
VStem: 430 193<455.655 1439.04> 1180 196<0 1446>
LayerCount: 3
Fore
SplineSet
40.1844 26.5657 m 1
 2 174 l 1
 59.3333 156 107.833 147 147.5 147 c 0
 373.5 147 430 305.828 430 969.833 c 0
 430 1143.11 422.667 1313.17 408 1480 c 1
 408 1571 l 1
 1376 1571 l 1
 1376 0 l 1
 1180 0 l 1
 1180 1446 l 1
 594 1446 l 1
 613.333 1258.67 623 1101.5 623 974.5 c 0
 623 278.141 545.227 4.67801e-06 234.137 5.24039e-06 c 0
 148.879 1.7468e-06 85.6844 9.23241 40.1844 26.5657 c 1
EndSplineSet
EndChar

StartChar: afii10037
Encoding: 722 1059 632
Width: 1214
GlyphClass: 2
Flags: W
HStem: -53 125<162.151 258.081> 1553 20G<-14 195.255 837.844 1049>
DStem2: 453 410 625 403 0.340711 0.940168<-288.383 0 204.263 383.989>
LayerCount: 3
Fore
SplineSet
542.892 594.686 m 1
 844 1573 l 1
 1049 1573 l 1
 625 403 l 2
 576.692 270.154 514.073 -19.0712 168 -53 c 1
 117 72 l 1
 317.368 106.964 372.142 169.993 453 410 c 1
 -14 1573 l 1
 188 1573 l 1
 542.892 594.686 l 1
EndSplineSet
EndChar

StartChar: afii10096
Encoding: 723 1102 633
Width: 1361
GlyphClass: 2
Flags: W
HStem: -20 143<431.403 782.176> 1044 146<431.582 780.01>
VStem: 76 182<320.702 838.527> 958 183<326.334 837.148>
LayerCount: 3
Fore
SplineSet
258 582.5 m 0
 258 315.54 358.442 123 608 123 c 0
 857.083 123 958 315.197 958 582.5 c 0
 958 849.505 856.418 1044 608 1044 c 0
 360.068 1044 258 850.231 258 582.5 c 0
76 582 m 0
 76 905.242 246.384 1190 594.5 1190 c 0
 1031.7 1190 1141 840.784 1141 582 c 0
 1141 255.975 976.974 -20 608 -20 c 0
 182.4 -20 76 337.875 76 582 c 0
EndSplineSet
EndChar

StartChar: afii10086
Encoding: 725 1092 635
Width: 1701
GlyphClass: 2
Flags: W
HStem: -20 126<420.158 642.394 836.661 1094.94> 4 102<586.691 681.339> 1065 125<429.088 680.892 836.849 1090.46>
VStem: 76 182<299.672 866.275> 682 154<-188 -8.5 106.431 1062.7 1165 1368> 1262 182<310.894 860.86>
LayerCount: 3
Fore
SplineSet
586 -20 m 0xbc
 178 -20 76 312.911 76 582 c 0
 76 1064.23 362.085 1188.45 555 1189.5 c 0
 616.333 1189.83 658.667 1181.67 682 1165 c 1
 682 1368 l 1
 836 1368 l 1
 836 1165 l 1
 852.741 1177.88 909.68 1190 950 1190 c 0
 1349.71 1186.26 1444 847.06 1444 582 c 0
 1444 230.219 1284 -20 932 -20 c 0xbc
 917.333 -20 898.167 -16.1667 874.5 -8.5 c 1
 836 -8.5 l 1
 836 -188 l 1
 682 -188 l 1
 682 4 l 1
 643.5 4 l 1x7c
 619.833 -3.66667 600.667 -20 586 -20 c 0xbc
1262 582.5 m 0
 1262 815.332 1196 1065 932 1065 c 0
 886.667 1065 854.667 1061 836 1053 c 1
 836 115 l 1
 850 109 870.667 106 898 106 c 2
 932 106 l 2
 1196 106 1262 346.783 1262 582.5 c 0
586 1065 m 0
 323.6 1065 258 818.634 258 582 c 0
 258 264.667 367.333 106 586 106 c 2
 620 106 l 2
 647.333 106 668 109 682 115 c 1
 682 1053 l 1
 663.333 1061 631.333 1065 586 1065 c 0
EndSplineSet
EndChar

StartChar: afii10067
Encoding: 727 1074 637
Width: 1361
GlyphClass: 2
Flags: W
HStem: -2 125<319.035 802.473> 543 113<319 758.676> 1044 123<300.045 789.062>
VStem: 127 192<119 543> 127 173<656 1047> 868 183<714.679 980.049> 895 182<201.876 478.723>
LayerCount: 3
Fore
SplineSet
1051 862 m 0xec
 1051 759.6 1017.48 632.429 762 606 c 1
 972 583.143 1077 495.81 1077 344 c 0xe2
 1077 67.2 864.461 -2 522 -2 c 2
 127 -2 l 1
 127 1167 l 1
 434 1167 l 2
 853.848 1167 1051 1107.6 1051 862 c 0xec
895 344 m 0
 895 501.127 805.131 543 606 543 c 2
 319 543 l 1
 319 119 l 2xf2
 319 121.667 366.167 123 460.5 123 c 0
 735.325 123 895 132.236 895 344 c 0
868 862 m 0xec
 868 1012.9 761.566 1044 451 1044 c 1
 361.667 1044 300 1045 300 1047 c 2
 300 656 l 1
 569 656 l 2
 812.115 656 868 709.208 868 862 c 0xec
EndSplineSet
EndChar

StartChar: afii10092
Encoding: 728 1098 638
Width: 1286
GlyphClass: 2
Flags: W
HStem: -2 125<330 797.394> 524 125<330 815.792> 1055 112<-61 135>
VStem: 135 195<123 524 649 1055> 891 182<201.863 457.457>
LayerCount: 3
Fore
SplineSet
1073 344 m 0
 1073 136.4 971.828 -2.00003 532 -2 c 2
 135 -2 l 1
 135 1055 l 1
 -61 1055 l 1
 -61 1167 l 1
 330 1167 l 1
 330 649 l 1
 504 649 l 2
 909.812 649 1073 565.576 1073 344 c 0
891 348.893 m 0
 891 518.414 709.635 523.012 518 524 c 2
 330 524 l 1
 330 123 l 1
 518 123 l 2
 810.814 123 891 185.631 891 348.893 c 0
EndSplineSet
EndChar

StartChar: afii10093
Encoding: 729 1099 639
Width: 1771
GlyphClass: 2
Flags: W
HStem: -2 125<373 845.255> 524 125<373 850.084> 1149 18G<180 373 1247 1430>
VStem: 180 193<123 524 649 1167> 936 182<202.729 448.818> 1247 183<0 1169>
LayerCount: 3
Fore
SplineSet
1430 0 m 1
 1247 0 l 1
 1247 1169 l 1
 1430 1169 l 1
 1430 0 l 1
1118 344 m 0
 1118 136.4 1015.07 -1.99999 577 -2 c 2
 180 -2 l 1
 180 1167 l 1
 373 1167 l 1
 373 649 l 1
 551 649 l 2
 957.162 649 1118 566.316 1118 344 c 0
936 344 m 0
 936 517.881 714.034 530.49 534 524 c 1
 373 524 l 1
 373 123 l 1
 563 123 l 2
 848.266 123 936 182.499 936 344 c 0
EndSplineSet
EndChar

StartChar: afii10094
Encoding: 730 1100 640
Width: 1306
GlyphClass: 2
Flags: W
HStem: -2 125<348 817.38> 524 125<348 823.617> 1147 20G<154 348>
VStem: 154 194<123 524 649 1167> 909 183<201.864 448.861>
LayerCount: 3
Fore
SplineSet
1092 344 m 0
 1092 136.4 989.071 -1.99999 551 -2 c 2
 154 -2 l 1
 154 1167 l 1
 348 1167 l 1
 348 649 l 1
 524 649 l 2
 930.892 649 1092 566.558 1092 344 c 0
909 344 m 0
 909 517.881 687.034 530.49 507 524 c 1
 348 524 l 1
 348 123 l 1
 537 123 l 2
 847.808 123 909 197.741 909 344 c 0
EndSplineSet
EndChar

StartChar: afii10106
Encoding: 731 1113 641
Width: 2203
GlyphClass: 2
Flags: W
HStem: -51 157<66 154.884> -2 125<1122 1562.26> 524 125<1122 1579.48> 1053 114<504 928>
VStem: 928 194<123 524 649 1053> 1653 182<202.729 462.586>
DStem2: 276 381 448.283 358.057 0.0735913 0.997288<-174.938 686.957>
LayerCount: 3
Fore
SplineSet
1835 344 m 0xbc
 1835 136.4 1732.07 -1.99999 1294 -2 c 2
 928 -2 l 1x7c
 928 1053 l 1
 504 1053 l 1
 448.283 358.057 l 1
 448.283 40.3874 210.537 -15.6688 66 -51 c 1
 66 106 l 1
 214.32 167.61 264.528 223.266 276 381 c 2
 334 1167 l 1
 1122 1167 l 1
 1122 649 l 1
 1268 649 l 2
 1674.16 649 1835 566.316 1835 344 c 0xbc
1280 123 m 2
 1565.27 123 1653 182.499 1653 344 c 0
 1653 402.769 1635.5 444.269 1600.5 468.5 c 0
 1536.78 512.614 1481.07 524 1250 524 c 2
 1122 524 l 1
 1122 123 l 1
 1280 123 l 2
EndSplineSet
EndChar

StartChar: afii10107
Encoding: 732 1114 642
Width: 2279
GlyphClass: 2
Flags: W
HStem: -2 125<1227 1677.48> 524 125<1227 1702.74> 551 115<350 1032> 1147 20G<156 350 1032 1227>
VStem: 156 194<0 551 666 1167> 1032 195<123 524 666 1167> 1778 182<204.466 459.513>
LayerCount: 3
Fore
SplineSet
1960 349.882 m 0xde
 1960 138.753 1863.62 -1.99999 1419 -2 c 2
 1032 -2 l 1
 1032 551 l 1
 350 551 l 1
 350 0 l 1
 156 0 l 1
 156 1167 l 1
 350 1167 l 1
 350 666 l 1
 1032 666 l 1xbe
 1032 1167 l 1
 1227 1167 l 1
 1227 649 l 1
 1343 649 l 1
 1633.67 652.545 1960 639.956 1960 349.882 c 0xde
1405 123 m 2
 1690.27 123 1778 182.499 1778 344 c 0
 1778 402.769 1760.5 444.269 1725.5 468.5 c 0
 1661.78 512.614 1606.07 524 1375 524 c 2
 1227 524 l 1xde
 1227 123 l 1
 1405 123 l 2
EndSplineSet
EndChar

StartChar: afii10089
Encoding: 733 1095 643
Width: 1226
GlyphClass: 2
Flags: W
HStem: 0 21G<807 999> 338 143<364.02 807> 1147 20G<92 285 807 999>
VStem: 92 193<558.513 1167> 807 192<0 340 481 1167>
LayerCount: 3
Fore
SplineSet
285 768 m 2
 285 579.796 333.014 481 516 481 c 2
 807 481 l 1
 807 1167 l 1
 999 1167 l 1
 999 0 l 1
 807 0 l 1
 807 340 l 1
 805.667 338.667 708.667 338 516 338 c 0
 212.096 338 92 476.999 92 768 c 2
 92 1167 l 1
 285 1167 l 1
 285 768 l 2
EndSplineSet
EndChar

StartChar: afii10079
Encoding: 734 1085 644
Width: 1548
GlyphClass: 2
Flags: W
HStem: 0 21G<156 350 1032 1227> 551 115<350 1032> 1147 20G<156 350 1032 1227>
VStem: 156 194<0 551 666 1167> 1032 195<0 551 666 1167>
LayerCount: 3
Fore
SplineSet
1032 0 m 1
 1032 551 l 1
 350 551 l 1
 350 0 l 1
 156 0 l 1
 156 1167 l 1
 350 1167 l 1
 350 666 l 1
 1032 666 l 1
 1032 1167 l 1
 1227 1167 l 1
 1227 0 l 1
 1032 0 l 1
EndSplineSet
EndChar

StartChar: afii10078
Encoding: 735 1084 645
Width: 2179
GlyphClass: 2
Flags: W
HStem: 0 21G<82 276 614.247 825.966 1183.38 1358> 1147 20G<128.195 393.729 1046.27 1311.81>
VStem: 82 194<0 355.96> 129 147<811.04 1021.73> 1152.38 158.62<811.04 1025.8> 1184 174<0 355.96>
DStem2: 387 1167 276 1021.73 0.318905 -0.947787<102.286 1097.9>
LayerCount: 3
Fore
SplineSet
621 0 m 1xc8
 276 1021.73 l 1xd8
 276 0 l 1
 82 0 l 1xe0
 129 1167 l 1
 387 1167 l 1
 737.126 126.426 l 1
 803 424 l 1
 1053 1167 l 1
 1311 1167 l 1xd8
 1358 0 l 1
 1184 0 l 1xc4
 1152.38 1025.8 l 1
 1083 758 l 1
 819 0 l 1
 621 0 l 1xc8
EndSplineSet
EndChar

StartChar: afii10088
Encoding: 736 1094 646
Width: 1595
GlyphClass: 2
Flags: W
HStem: 0 115<350 954> 1147 20G<156 350 954 1149>
VStem: 156 194<115 1167> 954 195<119 1167> 1073 180<-164.791 0>
LayerCount: 3
Fore
SplineSet
156 0 m 1xe8
 156 1167 l 1
 350 1167 l 1
 350 115 l 1
 954 115 l 1
 954 1167 l 1
 1149 1167 l 1
 1149 119 l 1xf0
 1253 119 l 1
 1253 57 l 2
 1253 -45 1258.67 -120 1270 -168 c 1
 1100 -168 l 1
 1083.33 -99.3333 1074.33 -43.3333 1073 0 c 1
 156 0 l 1xe8
EndSplineSet
EndChar

StartChar: afii10091
Encoding: 737 1097 647
Width: 2084
GlyphClass: 2
Flags: W
HStem: 0 115<350 780 975 1391> 1147 20G<156 350 780 975 1391 1585>
VStem: 156 194<115 1167> 780 195<115 1167> 1391 194<119 1167> 1509 181<-164.791 0>
LayerCount: 3
Fore
SplineSet
156 0 m 1xf4
 156 1167 l 1
 350 1167 l 1
 350 115 l 1
 780 115 l 1
 780 1167 l 1
 975 1167 l 1
 975 115 l 1
 1391 115 l 1
 1391 1167 l 1
 1585 1167 l 1
 1585 119 l 1xf8
 1690 119 l 1
 1690 57 l 2
 1690 -48.3333 1695.33 -123.333 1706 -168 c 1
 1536 -168 l 1
 1519.33 -99.3333 1510.33 -43.3333 1509 0 c 1
 156 0 l 1xf4
EndSplineSet
EndChar

StartChar: afii10077
Encoding: 739 1083 649
Width: 1595
GlyphClass: 2
Flags: W
HStem: -51 157<68 156.314> 0 21G<954 1149> 1053 114<487 954>
VStem: 954 195<0 1053>
DStem2: 262 381 433.309 358.053 0.0698039 0.997561<-195.827 686.067>
LayerCount: 3
Fore
SplineSet
317 1167 m 1xb0
 1149 1167 l 1
 1149 0 l 1
 954 0 l 1x70
 954 1053 l 1
 487 1053 l 1
 433.309 358.053 l 1
 433.309 40.0807 215.039 -14.2401 68 -51 c 1
 68 106 l 1
 235.551 173.665 252.021 238.387 262 381 c 2
 317 1167 l 1xb0
EndSplineSet
EndChar

StartChar: afii10074
Encoding: 740 1080 650
Width: 1363
GlyphClass: 2
Flags: W
HStem: 0 21G<123 283 936 1098> 1147 20G<123 285 849.964 1098>
VStem: 123 162<-12 123 342 1167> 936 162<0 1055>
LayerCount: 3
Fore
SplineSet
285 342 m 1
 864 1167 l 1
 1098 1167 l 1
 1098 0 l 1
 936 0 l 1
 936 1055 l 1
 848 889 l 1
 283 123 l 1
 283 -12 l 1
 123 -12 l 1
 123 1167 l 1
 285 1167 l 1
 285 342 l 1
EndSplineSet
EndChar

StartChar: afii10090
Encoding: 741 1096 651
Width: 2084
GlyphClass: 2
Flags: W
HStem: 0 115<350 780 975 1391> 1147 20G<156 350 780 975 1391 1585>
VStem: 156 194<115 1167> 780 195<115 1167> 1391 194<115 1167>
LayerCount: 3
Fore
SplineSet
1585 0 m 1
 156 0 l 1
 156 1167 l 1
 350 1167 l 1
 350 115 l 1
 780 115 l 1
 780 1167 l 1
 975 1167 l 1
 975 115 l 1
 1391 115 l 1
 1391 1167 l 1
 1585 1167 l 1
 1585 0 l 1
EndSplineSet
EndChar

StartChar: afii10072
Encoding: 742 1078 652
Width: 1384
GlyphClass: 2
Flags: W
HStem: 0 21G<-16 193.494 516 668 1002.08 1212> 1149 20G<-20 194.315 530 678 1002.23 1217>
VStem: 516 152<0 498 680 1167>
DStem2: 180 1169 -20 1169 0.604565 -0.796556<0 601.114>
LayerCount: 3
Fore
SplineSet
668 0 m 1
 516 0 l 1
 516 498 l 1
 180 0 l 1
 -16 0 l 1
 424 584 l 1
 -20 1169 l 1
 180 1169 l 1
 530 680 l 1
 530 1167 l 1
 678 1167 l 1
 678 678 l 1
 1016 1169 l 1
 1217 1169 l 1
 772 584 l 1
 1212 0 l 1
 1016 0 l 1
 668 500 l 1
 668 0 l 1
EndSplineSet
EndChar

StartChar: afii10084
Encoding: 744 1090 654
Width: 1173
GlyphClass: 2
Flags: W
HStem: 0 21G<430 625> 1026 141<-10 430 625 1059>
VStem: 430 195<0 1026>
LayerCount: 3
Fore
SplineSet
1059 1026 m 1
 625 1026 l 1
 625 0 l 1
 430 0 l 1
 430 1026 l 1
 -10 1026 l 1
 -10 1167 l 1
 1059 1167 l 1
 1059 1026 l 1
EndSplineSet
EndChar

StartChar: afii10069
Encoding: 747 1076 657
Width: 1595
GlyphClass: 2
Flags: W
HStem: -209 158<59 144.43> 0 114.994<428.097 954> 1053 114<487 954>
VStem: 954 195<-158 0 115 1053>
DStem2: 254 223 428.097 114.994 0.0623783 0.998053<-95.2143 842.918>
LayerCount: 3
Fore
SplineSet
313 1167 m 1
 1149 1167 l 1
 1149 -158 l 1
 954 -158 l 1
 954 0 l 1
 393 0 l 1
 349.061 -87.8777 282.75 -154.044 59 -209 c 1
 59 -51 l 1
 222.961 15.2149 244.742 77.9529 254 223 c 2
 313 1167 l 1
428.097 114.994 m 1
 954 115 l 1
 954 1053 l 1
 487 1053 l 1
 428.097 114.994 l 1
EndSplineSet
EndChar

StartChar: afii10097
Encoding: 748 1103 658
Width: 1531
GlyphClass: 2
Flags: W
HStem: 0 21G<57 256.092 723 897> 535 106<522.849 723> 1063 104<303.929 723>
VStem: 57 162<719.794 988.076> 723 174<0 535 641 1063>
DStem2: 57 0 246 0 0.45925 0.888307<86.7983 631.063>
LayerCount: 3
Fore
SplineSet
219 863.21 m 0
 219 685.442 314.341 641 629 641 c 2
 723 641 l 1
 723 1063 l 1
 623 1063 l 2
 417.177 1063 219 1064.7 219 863.21 c 0
57 852 m 0
 57 1112.71 224.857 1167 588 1167 c 2
 897 1167 l 1
 897 0 l 1
 723 0 l 1
 723 535 l 1
 648.333 535 580.667 537.667 520 543 c 1
 246 0 l 1
 57 0 l 1
 346.816 560.578 l 1
 154.86 599.219 57 677.4 57 852 c 0
EndSplineSet
EndChar

StartChar: afii10068
Encoding: 753 1075 663
Width: 1595
GlyphClass: 2
Flags: W
HStem: 0 21G<156 350> 1053 114<350 885>
VStem: 156 194<0 1053>
LayerCount: 3
Fore
SplineSet
885 1167 m 1
 885 1053 l 1
 350 1053 l 1
 350 0 l 1
 156 0 l 1
 156 1167 l 1
 885 1167 l 1
EndSplineSet
EndChar

StartChar: afii10066
Encoding: 754 1073 664
Width: 1224
GlyphClass: 2
Flags: W
HStem: -18 131<393.177 725.121> 961 133<391.281 725.279>
VStem: 65 173<296.483 778.204> 883 166<295.251 775.826>
DStem2: 287.458 1240.3 419 1154 0.925276 0.379295<-68.9769 614.718>
LayerCount: 3
Fore
SplineSet
559 -18 m 0
 167.8 -18 70 312.272 70 535 c 0
 70 569.827 65 612 65 662 c 0
 65 972.509 108.474 1166.93 287.458 1240.3 c 2
 860 1475 l 1
 913 1335 l 1
 560.913 1188.97 496.677 1189.08 419 1154 c 0
 309.144 1104.97 239.811 1013.97 211 881 c 1
 299 1023 415 1094 559 1094 c 0
 951 1094 1049 755.346 1049 535 c 0
 1049 313.8 951 -18 559 -18 c 0
238 535.5 m 0
 238 290.37 329.755 113 559 113 c 0
 787.397 113 883 288.93 883 535 c 0
 883 780.509 787.72 961 559.5 961 c 0
 331.352 961 238 781.427 238 535.5 c 0
EndSplineSet
EndChar

StartChar: afii10038
Encoding: 766 1060 676
Width: 2443
GlyphClass: 2
Flags: W
HStem: -41 152<552.522 968.464 1215.13 1628.46> 1458 152<556.535 971.945 1211.94 1629.51>
VStem: 96 201<426.77 1145.24> 1001 179<-111 10 152.276 1419.27 1559 1696> 1888 201<435.829 1133.89>
LayerCount: 3
Fore
SplineSet
297 785 m 0
 297 425.996 389.6 111 760 111 c 0
 854 111 934.333 132 1001 174 c 1
 1001 1397 l 1
 937 1437.67 856.667 1458 760 1458 c 0
 389.6 1458 297 1149.19 297 785 c 0
96 784 m 0
 96 1491.23 494.4 1610 760 1610 c 0
 859.333 1610 939.667 1593 1001 1559 c 1
 1001 1696 l 1
 1180 1696 l 1
 1180 1556 l 1
 1241.33 1592 1316.5 1610 1405.5 1610 c 0
 1615.66 1610 2089 1560.41 2089 784 c 0
 2089 73.4219 1690.6 -41 1425 -41 c 0
 1319.67 -41 1238 -24 1180 10 c 1
 1180 -111 l 1
 1001 -111 l 1
 1001 10 l 1
 939.667 -24 864.833 -41 776.5 -41 c 0
 232.1 -41 96 368.214 96 784 c 0
1888 785 m 0
 1888 1149.19 1795.4 1458 1425 1458 c 0
 1325 1458 1243.33 1437 1180 1395 c 1
 1180 176 l 1
 1245.33 132.667 1327 111 1425 111 c 0
 1795.4 111 1888 426.177 1888 785 c 0
EndSplineSet
EndChar

StartChar: afii10041
Encoding: 767 1063 677
Width: 1359
GlyphClass: 2
Flags: W
HStem: 0 21G<954 1147> 583.921 141.079<345.784 954> 1553 20G<61 254 954 1147>
VStem: 61 193<821.76 1573> 954 193<0 583.921 725 1573>
LayerCount: 3
Fore
SplineSet
254 1044 m 2
 254 794.793 345.6 725 483 725 c 2
 954 725 l 1
 954 1573 l 1
 1147 1573 l 1
 1147 0 l 1
 954 0 l 1
 954 583.921 l 1
 471 583.921 l 2
 260.8 583.921 61 677.923 61 1044 c 2
 61 1573 l 1
 254 1573 l 1
 254 1044 l 2
EndSplineSet
EndChar

StartChar: afii10048
Encoding: 768 1070 678
Width: 2336
GlyphClass: 2
Flags: W
HStem: -41 152<1126.2 1532.46> 0 21G<156 350> 764 115<350 666> 1458 152<1121.51 1532.46> 1559 20G<156 350>
VStem: 156 194<0 764 879 1579> 666 200<430.726 764 879 1133.28> 1792 201<435.54 1134.41>
LayerCount: 3
Fore
SplineSet
1792 785 m 0xb7
 1792 1149.19 1699.4 1458 1329 1458 c 0
 958.6 1458 866 1149.19 866 785 c 0
 866 425.996 958.6 111 1329 111 c 0
 1699.4 111 1792 426.177 1792 785 c 0xb7
1329 -41 m 0
 1063.8 -41 674.063 66.564 666 764 c 1
 350 764 l 1
 350 0 l 1
 156 0 l 1
 156 1579 l 1
 350 1579 l 1x6f
 350 879 l 1
 668 879 l 1
 703.441 1497.25 1064.6 1610 1329 1610 c 0
 1594.6 1610 1993 1495.38 1993 784 c 0
 1993 71.8656 1594.6 -41 1329 -41 c 0
EndSplineSet
EndChar

StartChar: afii10018
Encoding: 769 1041 679
Width: 1531
GlyphClass: 2
Flags: W
HStem: 0 143<350 863.141> 768 145<350 860.981> 1436 143<350 1065>
VStem: 156 194<143 768 913 1436> 1040 183<287.819 626.251>
LayerCount: 3
Fore
SplineSet
1223 451 m 0
 1223 180.4 1071 2.41838e-05 522 0 c 2
 156 0 l 1
 156 1579 l 1
 1065 1579 l 1
 1065 1436 l 1
 350 1436 l 1
 350 913 l 1
 522 913 l 1
 1065.88 905.174 1223 727 1223 451 c 0
1040 455 m 0
 1040 705.4 862.388 768 522 768 c 2
 350 768 l 1
 350 143 l 1
 522 143 l 2
 806.455 143 1040 175.478 1040 455 c 0
EndSplineSet
EndChar

StartChar: afii10020
Encoding: 770 1043 680
Width: 1710
GlyphClass: 2
Flags: W
HStem: -2 21G<156 350> 1458 115<350 1180>
VStem: 156 194<-2 1458>
LayerCount: 3
Fore
SplineSet
1180 1458 m 1
 350 1458 l 1
 350 -2 l 1
 156 -2 l 1
 156 1573 l 1
 1180 1573 l 1
 1180 1458 l 1
EndSplineSet
EndChar

StartChar: afii10073
Encoding: 772 1079 682
Width: 1404
GlyphClass: 2
Flags: W
HStem: 2 139<188.85 643.207> 539 116<383 624.861> 980 149<154.997 372.234> 980 126<154 206.341> 1031 136<206.818 656.122>
VStem: 707 172<202.901 463.057 717.563 982.408>
LayerCount: 3
Fore
SplineSet
466.5 141 m 0xcc
 594.989 141 707.843 184.638 705 316 c 1
 705 319 l 1
 702.289 488.41 614.375 539 383 539 c 1
 383 655 l 1
 628.236 655 707 702.656 707 848 c 0
 707 957.8 674.281 1031 483 1031 c 0xcc
 371.533 1031 273.867 1014 190 980 c 1xe4
 154 980 l 1
 154 1106 l 1xd4
 175.333 1116.67 193 1124.33 207 1129 c 1
 255 1129 l 1xe4
 302.647 1144 359.647 1167 426 1167 c 1
 720.667 1167 879 1061.33 879 850 c 0
 879 691.698 769.127 613.657 676 592 c 1
 779.178 565.295 877 471.384 877 332 c 0
 877 271.852 867.072 141.001 736 70.5 c 0
 653.61 26.184 549.61 3.35065 424 2 c 1
 326.667 2 228 21 152 59 c 1
 152 201 l 1
 199.344 178.906 309.663 141 466.5 141 c 0xcc
EndSplineSet
EndChar

StartChar: afii10024
Encoding: 773 1046 683
Width: 1466
GlyphClass: 2
Flags: W
HStem: 0 21G<223 410 987 1217> 590 149<410 588> 1153 178<1034.59 1196.69>
VStem: 223 187<0 590 739 1323>
DStem2: 712.038 669.57 588 590 0.602123 -0.798403<0 708.578> 590 739 811 786 0.534461 0.845193<6.54273 610.456>
LayerCount: 3
Fore
SplineSet
410 590 m 1
 410 0 l 1
 223 0 l 1
 223 1323 l 1
 410 1323 l 1
 410 739 l 1
 590 739 l 1
 848 1147 l 2
 922.574 1265.58 991.4 1331 1087 1331 c 0
 1126.5 1331 1163.5 1323.33 1198 1308 c 1
 1198 1143 l 1
 1176.67 1149.67 1153.67 1153 1129 1153 c 0
 1080.81 1153 1032.82 1121.22 989 1055 c 2
 811 786 l 1
 712.038 669.57 l 1
 1217 0 l 1
 1001 0 l 1
 588 590 l 1
 410 590 l 1
EndSplineSet
EndChar

StartChar: afii10025
Encoding: 774 1047 684
Width: 1507
GlyphClass: 2
Flags: W
HStem: -41 152<335.65 903.281> 690 189<504 932.347> 1458 152<354.256 899.394>
VStem: 1056 185<248.086 564.296 1001.6 1319.83>
CounterMasks: 1 e0
LayerCount: 3
Fore
SplineSet
1241 429 m 0
 1241 94.2935 1033.17 -41 678 -41 c 0
 493.143 -41 328.225 -0.633732 270 24 c 1
 217 45 l 1
 217 197 l 2
 217.095 196.964 409.949 111 629.523 111 c 0
 878.719 111 961.379 177.115 999 227.5 c 0
 1037 278.393 1056 337.866 1056 405.92 c 0
 1056 515.941 1005.93 639.907 840 690 c 1
 504 690 l 1
 504 879 l 1
 840 879 l 1
 1004.43 928.638 1056 1054.51 1056 1154 c 0
 1056 1397.2 871.681 1458 643 1458 c 0
 484.529 1458 326.087 1415.81 270 1394 c 1
 217 1372 l 1
 217 1524 l 1
 238 1524 l 1
 322.99 1560.42 465.37 1610 708 1610 c 0
 802.877 1610 981.384 1588.27 1091 1491.5 c 0
 1191 1403.22 1241 1286.39 1241 1141 c 0
 1241 1001.96 1180.02 837.174 981 784 c 1
 1184.2 719.345 1241 560.449 1241 429 c 0
EndSplineSet
EndChar

StartChar: dotlessi
Encoding: 776 305 686
Width: 583
Flags: W
HStem: 0 21G<200.5 382.5> 1149 20G<200.5 382.5>
VStem: 200.5 182<0 1169>
LayerCount: 3
Fore
SplineSet
382.5 0 m 1
 200.5 0 l 1
 200.5 1169 l 1
 382.5 1169 l 1
 382.5 0 l 1
EndSplineSet
EndChar

StartChar: uni0237
Encoding: 780 567 690
Width: 588
Flags: W
HStem: -373 21G<58.8261 153> 1149 20G<208 398>
VStem: 208 190<-98.2229 1169>
LayerCount: 3
Fore
SplineSet
20 -258 m 1
 187 -151 208 -30 208 176 c 2
 208 1169 l 1
 398 1169 l 1
 398 154 l 2
 398 -158 239 -332 67 -373 c 1
 20 -258 l 1
EndSplineSet
EndChar

StartChar: dcroat
Encoding: 813 273 723
Width: 1265
Flags: W
HStem: -20 143<444.465 769.666> 0 21<984.872 1129> 1047 143<439.611 771.922> 1348 131<675 1265>
VStem: 112 181.999<302.952 861.118> 939 190<235.534 932.874 1028 1657> 988 141<0 91.648>
LayerCount: 3
Fore
SplineSet
1265 1348 m 5x38
 675 1348 l 5
 675 1479 l 5
 1265 1479 l 5
 1265 1348 l 5x38
EndSplineSet
Refer: 66 100 N 1 0 0 1 0 0 2
EndChar

StartChar: Lslash
Encoding: 815 321 725
Width: 1111
Flags: W
HStem: 0 143<323 1069> 764 131<-6 584> 1559 20<129 323>
VStem: 129 194<143 1579>
LayerCount: 3
Fore
SplineSet
584 764 m 5
 -6 764 l 5
 -6 895 l 5
 584 895 l 5
 584 764 l 5
EndSplineSet
Refer: 42 76 N 1 0 0 1 0 0 2
EndChar

StartChar: lslash
Encoding: 816 322 726
Width: 590
Flags: W
HStem: 0 21<205 395> 764 131<-11 579>
VStem: -11 590<764 895> 205 190<0 1661>
LayerCount: 3
Fore
SplineSet
579 764 m 5xe0
 -11 764 l 5
 -11 895 l 5
 579 895 l 5
 579 764 l 5xe0
EndSplineSet
Refer: 74 108 N 1 0 0 1 0 0 2
EndChar

StartChar: Tbar
Encoding: 817 358 727
Width: 1135
Flags: W
HStem: 0 21<433 624> 764 131<229 819> 1436 143<-27 433 624 1081>
VStem: 433 191<0 1436>
LayerCount: 3
Fore
SplineSet
819 764 m 5
 229 764 l 5
 229 895 l 5
 819 895 l 5
 819 764 l 5
EndSplineSet
Refer: 50 84 N 1 0 0 1 0 0 2
EndChar

StartChar: tbar
Encoding: 819 359 729
Width: 907
Flags: W
HStem: -16 147.156<473.898 719.772> 764 131<97 759> 1065 104<97 280 470 763> 1582 20G<399.565 470>
VStem: 280 190<147.687 1065> 308 162<1169 1556>
LayerCount: 3
Fore
SplineSet
759 764 m 5xf0
 97 764 l 5
 97 895 l 1
 759 895 l 1
 759 764 l 5xf0
564 -16 m 0
 359 -16 280 85 280 350 c 2
 280 1065 l 1xf8
 97 1065 l 1
 97 1169 l 1
 308 1169 l 1
 308 1556 l 1
 470 1602 l 1
 470 1169 l 1xf4
 763 1169 l 1
 763 1065 l 1
 470 1065 l 1
 470 173 l 1xf8
 487.705 151.129 518.698 131.156 568.202 131.156 c 0
 613.763 131.156 675.005 148.074 756 196 c 1
 794 217 l 1
 861 94 l 1
 814 64 l 2
 804 58 669 -16 564 -16 c 0
EndSplineSet
EndChar

StartChar: eng
Encoding: 820 331 730
Width: 1262
Flags: W
HStem: -377 147.156<690.228 918.404> 1047 141<549.205 851.341>
VStem: 146 140<1057.3 1169> 940 190<-212.445 0 727 951.362>
LayerCount: 3
Fore
SplineSet
940 -51 m 6
 940 -193 907 -229.844 841.798 -229.844 c 0
 796.237 -229.844 734.995 -212.926 654 -165 c 1
 616 -144 l 1
 549 -267 l 1
 596 -297 l 2
 606 -303 741 -377 846 -377 c 0
 1051 -377 1130 -264 1130 0 c 6
 1130 727 l 2
 1130 1121 907 1188 759 1188 c 0
 576 1188 385 1076 310 982 c 1
 286 1169 l 1
 146 1169 l 1
 146 0 l 1
 336 0 l 1
 336 880 l 1
 371 914 558 1047 716 1047 c 0
 890 1047 940 913 940 727 c 2
 940 -51 l 6
EndSplineSet
EndChar

StartChar: Eng
Encoding: 821 330 731
Width: 1532
Flags: W
HStem: -468 147.156<977.229 1205.68> 0 21G<145 315> 1559 20G<145 419.477 1228 1398>
VStem: 145 170<0 1464> 1227 171<-304.313 -72.6364 199.352 1579>
LayerCount: 3
Fore
SplineSet
403 1257 m 1
 315 1464 l 1
 315 0 l 1
 145 0 l 1
 145 1579 l 1
 407 1579 l 1
 1140 404 l 1
 1227 199.352 l 1
 1227 613 l 1
 1228 613 l 1
 1228 1579 l 1
 1398 1579 l 1
 1398 613 l 1
 1398 82 l 1
 1398 -102 l 2
 1398 -367 1338 -468 1133 -468 c 0
 1028 -468 893 -394 883 -388 c 2
 836 -358 l 1
 903 -235 l 1
 941 -256 l 1
 1022 -303.926 1083.24 -320.844 1128.8 -320.844 c 0
 1194 -320.844 1227 -290 1227 -153.5 c 2
 1227 -72.6364 l 1
 403 1257 l 1
EndSplineSet
EndChar

StartChar: quotedbl
Encoding: 34 34 735
Width: 538
Flags: W
HStem: 1058 517<45.5 153.5 384.5 492.5>
VStem: -14.5 228<1420.27 1575> 324.5 228<1420.27 1575>
LayerCount: 3
Fore
SplineSet
324.5 1534 m 1
 324.5 1575 l 1
 552.5 1575 l 1
 552.5 1534 l 0
 492.5 1058 l 5
 384.5 1058 l 5
 324.5 1534 l 1
-14.5 1534 m 1
 -14.5 1575 l 1
 213.5 1575 l 1
 213.5 1534 l 0
 153.5 1058 l 5
 45.5 1058 l 5
 -14.5 1534 l 1
EndSplineSet
EndChar

StartChar: currency
Encoding: 164 164 736
Width: 1366
Flags: W
HStem: 677.191 145.32<524.832 817.482> 1389.15 147.49<538.897 834.78> 1564.95 20G<304.91 344.912 1019.09 1059.09>
VStem: 248.709 146.9<950.72 1245.48> 962.04 146.11<967.015 1262.55>
DStem2: 324.911 1584.95 199.046 1459.09 0.707107 -0.707107<0 186.808 989.184 1187.99> 199.046 744.911 324.911 619.046 0.707109 0.707105<0.000535939 178.237 1011.88 1188>
LayerCount: 3
Fore
SplineSet
483.303 1300.75 m 0
 424.307 1241.76 395.609 1169.43 395.609 1098.18 c 0
 395.609 1027.89 423.542 958.651 477.872 904.321 c 0
 532.008 850.186 600.671 822.511 670.414 822.511 c 0
 741.744 822.511 814.202 851.46 873.399 910.657 c 0
 933.131 970.389 962.04 1043.62 962.04 1115.38 c 0
 962.04 1185.47 934.463 1254.17 881.093 1307.54 c 0
 826.807 1361.83 757.891 1389.15 688.058 1389.15 c 0
 615.705 1389.15 542.369 1359.82 483.303 1300.75 c 0
317.078 862.942 m 1
 271.902 931.202 248.709 1010.47 248.709 1090.98 c 0
 248.709 1174.18 273.481 1258.71 324.358 1333.78 c 1
 199.046 1459.09 l 1
 324.911 1584.95 l 1
 450.086 1459.78 l 1
 525.369 1511.06 610.909 1536.64 695.434 1536.64 c 0
 775.193 1536.64 854.048 1513.86 922.53 1468.4 c 1
 1039.09 1584.95 l 1
 1164.95 1459.09 l 1
 1046.55 1340.68 l 1
 1087.59 1274.66 1108.15 1199.7 1108.15 1123.92 c 0
 1108.15 1039.39 1082.57 953.854 1031.29 878.57 c 1
 1164.95 744.911 l 1
 1039.09 619.046 l 1
 905.29 752.845 l 1
 830.228 701.977 745.69 677.191 662.466 677.191 c 0
 586.014 677.191 510.67 698.107 444.799 738.934 c 1
 324.911 619.046 l 1
 199.046 744.911 l 1
 317.078 862.942 l 1
EndSplineSet
EndChar

StartChar: ae
Encoding: 230 230 737
Width: 1897
Flags: W
HStem: -23 142<380.263 715.39 1225.58 1577.9> 567 115<1054 1654> 590 125<401.475 848.949> 1047 143<382.702 788.839 1189.38 1551.68>
VStem: 116 191<191.867 503.219> 864 190<299.017 567 682 892.043> 1654 168<682 926.576>
LayerCount: 3
Fore
SplineSet
864 665 m 1xbe
 864 713 l 2
 864 964 826 1047 612 1047 c 0
 432 1047 279 958 249 935 c 1
 182 1057 l 1
 272 1133 474 1190 602 1190 c 0
 810.245 1190 934 1134 984 970 c 1
 1058 1124 1221.62 1190 1379 1190 c 0
 1671 1190 1822 981 1822 676 c 0
 1822 641 1819 605 1814 567 c 1
 1054 567 l 1xde
 1054 313 1123 127 1400 127 c 0
 1513 127 1615 166 1706 244 c 1
 1768 99 l 1
 1655 16 1477 -23 1388 -23 c 0
 1184.36 -23 1038.84 60.9421 954.862 207.126 c 1
 869.413 93.3296 708.23 -23 508 -23 c 0
 263 -23 116 102 116 339 c 2
 116 343 l 2
 116 585 297 715 560 715 c 0
 653 715 792 694 864 665 c 1xbe
555 119 m 0
 680 119 782 194 864 271 c 1
 864 569 l 1
 779 583 702 590 633 590 c 0xbe
 371 590 307 497 307 356 c 0
 307 183 386 119 555 119 c 0
1654 717 m 2
 1654 1012 1490 1057 1380 1057 c 0
 1253 1057 1054 998 1054 682 c 1
 1654 682 l 1xde
 1654 717 l 2
EndSplineSet
Layer: 2
SplineSet
1654 717 m 6
 1654 1012 1490 1057 1380 1057 c 4
 1253 1057 1054 998 1054 682 c 5
 1654 682 l 5
 1654 717 l 6
1054 567 m 5
 1054 313 1123 127 1400 127 c 4
 1513 127 1615 166 1706 244 c 5
 1768 99 l 5
 1655 16 1477 -23 1388 -23 c 4
 1048 -23 870 211 870 578 c 4
 870 973 1083 1190 1379 1190 c 4
 1671 1190 1822 981 1822 676 c 4
 1822 641 1819 605 1814 567 c 5
 1054 567 l 5
555 119 m 4xbc
 680 119 782 194 864 271 c 5
 864 569 l 5
 779 583 702 590 633 590 c 4
 371 590 307 497 307 356 c 4
 307 183 386 119 555 119 c 4xbc
864 665 m 5
 864 713 l 5
 864 964 826 1047 612 1047 c 4
 432 1047 279 958 249 935 c 5
 182 1057 l 5
 272 1133 474 1190 602 1190 c 4
 942 1190 1054 1047 1054 686 c 6xbc
 1054 0 l 5
 914 0 l 5x7a
 886 178 l 5
 794 51 673 -23 508 -23 c 4
 263 -23 116 102 116 339 c 6
 116 343 l 5
 116 585 297 715 560 715 c 4
 653 715 792 694 864 665 c 5
EndSplineSet
EndChar

StartChar: kgreenlandic
Encoding: 825 312 738
Width: 1136
Flags: W
HStem: 0 21G<146 336 914.514 1153> 1149 20G<146 336 874.599 1120>
VStem: 146 190<0 453 621 1168>
DStem2: 336 621 567 642 0.714098 0.700046<179.658 782.806> 567 642 452 549 0.67416 -0.738585<0 720.24>
LayerCount: 3
Fore
SplineSet
1120 1169 m 1
 567 642 l 5
 1153 0 l 1
 932 0 l 1
 452 549 l 5
 336 453 l 5
 336 0 l 1
 146 0 l 1
 146 1168 l 1
 336 1168 l 1
 336 621 l 5
 895 1169 l 1
 1120 1169 l 1
EndSplineSet
EndChar

StartChar: uni00AD
Encoding: 173 173 740
Width: 864
Flags: W
HStem: 508 131<154 622>
VStem: 154 468<508 639>
LayerCount: 3
Fore
SplineSet
622 508 m 5
 154 508 l 1
 154 639 l 1
 622 639 l 5
 622 508 l 5
EndSplineSet
EndChar

StartChar: Oslash
Encoding: 216 216 741
Width: 1557
Flags: W
HStem: -41 152<575.607 980.811> 1458 152<573.385 978.954>
VStem: 123 201<438.989 1145.61> 1233 201<431.27 1135.22>
DStem2: 349 -113 450 -159 0.411547 0.911389<0 2000.99>
LayerCount: 3
Fore
SplineSet
349 -113 m 1
 1174 1710 l 1
 1275 1668 l 1
 450 -159 l 1
 349 -113 l 1
EndSplineSet
Refer: 45 79 N 1 0 0 1 0 0 2
EndChar

StartChar: eth
Encoding: 240 240 742
Width: 1265
Flags: W
HStem: -20 143<444.465 770.826> 1047 143<442.317 776.021> 1573 20G<1033.5 1110.33>
VStem: 112 181.999<302.952 861.118> 945 184<348.198 867.986>
DStem2: 453 1401 495 1311 0.958798 0.284088<14.7016 675.846>
LayerCount: 3
Fore
SplineSet
453 1401 m 1
 1101 1593 l 1
 1143 1503 l 1
 495 1311 l 1
 453 1401 l 1
1129 690 m 1
 1129 144 891 -20 596 -20 c 0
 248 -20 112 267 112 584 c 0
 112 919 272 1190 574 1190 c 0
 747 1190 886 1093.5 939 1028 c 1
 868.255 1245.52 672 1491 435 1641 c 1
 519 1743 l 1
 792 1593 1129 1239 1129 690 c 1
945 666 m 1
 945 972 739.5 1047 618 1047 c 0
 465 1047 293.999 990.839 293.999 586.556 c 0
 294.002 335.5 361 123 592 123 c 0
 819 123 945 258 945 666 c 1
EndSplineSet
Layer: 2
SplineSet
1129 690 m 5
 1129 144 891 -20 596 -20 c 4
 248 -20 112 267 112 584 c 4xb4
 112 919 272 1190 574 1190 c 4
 747 1190 886 1093.5 939 1028 c 5
 868.255 1245.52 672 1491 435 1641 c 5
 519 1743 l 5xb8
 792 1593 1129 1239 1129 690 c 5
293.999 586.556 m 4
 294.002 335.5 361 123 592 123 c 4
 819 123 945 258 945 666 c 6
 939 903 l 5
 830.5 985.5 707.5 1047 586 1047 c 4
 469.199 1047 293.999 990.839 293.999 586.556 c 4
EndSplineSet
EndChar

StartChar: section
Encoding: 167 167 743
Width: 1045
Flags: W
HStem: -99.4033 146.312<296.971 675.948> 1421.24 144.41<326.431 698.718>
VStem: 122.32 153.698<646.563 854.956 1189.42 1369.68> 743.495 168.185<111.308 332.056 642.958 859.568>
LayerCount: 3
Fore
SplineSet
131.808 17.2939 m 5
 192.527 154.862 l 5
 276.018 82.7568 404.099 46.9092 483.793 46.9092 c 4
 625.157 46.9092 743.495 91.2959 743.495 220.325 c 4
 743.495 330.381 664.643 368.005 562.284 401.538 c 6
 402.202 455.616 l 6
 165.712 535.506 122.32 624.493 122.32 767.754 c 4
 122.32 847.973 174.502 968.889 376.585 991.659 c 5
 157.423 1077.05 122.32 1164.18 122.32 1281.98 c 4
 122.32 1395.83 211.503 1565.65 498.974 1565.65 c 4
 654.568 1565.65 818.702 1485.96 861.396 1448.96 c 5
 802.573 1313.28 l 5
 718.135 1379.7 613.772 1421.24 509.41 1421.24 c 4
 325.353 1421.24 278.12 1351.23 278.12 1271.54 c 4
 278.12 1214.61 305.635 1181.41 433.715 1135.87 c 6
 589.105 1079.89 l 6
 869.989 978.705 909.782 877.809 909.782 743.088 c 4
 909.782 627.339 814.907 530.566 661.21 519.182 c 5
 880.372 442.333 911.68 320.636 911.68 215.582 c 4
 911.68 -27.2979 685.878 -99.4033 496.128 -99.4033 c 4
 360.457 -99.4033 192.527 -33.9395 131.808 17.2939 c 5
510.833 596.979 m 4
 668.8 596.979 750.393 651.35 750.393 747.831 c 4
 750.393 894.608 596.601 903.425 511.308 903.425 c 4
 338.635 903.425 276.018 846.026 276.018 749.729 c 4
 276.018 641.097 364.252 596.979 510.833 596.979 c 4
EndSplineSet
Layer: 2
SplineSet
111 -442 m 5
 175 -297 l 5
 263 -373 398 -415 482 -415 c 4
 631 -415 761 -364 761 -228 c 4
 761 -112 677.888 -72.3427 570 -37 c 6
 396 20 l 6
 146 102 101 198 101 349 c 4
 101 433.553 147.668 547.397 281.233 607.277 c 5
 131.426 679.861 101 766.837 101 891 c 4
 101 1011 195 1190 498 1190 c 4
 662 1190 835 1106 880 1067 c 5
 818 924 l 5
 729 994 619 1042 509 1042 c 4
 315 1042 261 964 261 880 c 4
 261 820 290 785 425 737 c 6
 593 678 l 6
 889.905 573.73 933 461 933 309 c 4
 933 171.112 871.205 92.1176 782.931 48.5774 c 5
 910.13 -32.3825 933 -122.271 933 -233 c 4
 933 -489 695 -565 495 -565 c 4
 352 -565 175 -496 111 -442 c 5
508.5 177 m 4
 675 177 761 234.307 761 336 c 4
 761 490.706 598.902 500 509 500 c 4
 327 500 261 439.5 261 338 c 4
 261 223.5 354 177 508.5 177 c 4
EndSplineSet
EndChar

StartChar: degree
Encoding: 176 176 744
Width: 518
Flags: W
HStem: 715.75 67.625<156.764 330.156> 1059.38 67.62<156.764 330.156>
VStem: 36.75 74.25<826.166 1016.59> 375 74.25<825.528 1017.86>
LayerCount: 3
Fore
SplineSet
245.4 1059.38 m 0
 165 1059.38 111 994.575 111 921.375 c 0
 111 848.175 165 783.375 245.4 783.375 c 0
 323.4 783.375 375 846.975 375 921.375 c 0
 375 996.975 323.4 1059.38 245.4 1059.38 c 0
246.75 1127 m 4
 368.625 1127 449.25 1039.5 449.25 921.375 c 0
 449.25 805.125 368.625 715.75 246.75 715.75 c 0
 121.125 715.75 36.75 807 36.75 921.375 c 0
 36.75 1035.75 121.125 1127 246.75 1127 c 4
EndSplineSet
EndChar

StartChar: braceleft
Encoding: 123 123 745
Width: 712
Flags: W
HStem: -210 169<493.601 662.496> 550 189<115.495 201.449> 1330 169<493.574 662.496>
VStem: 254.495 170.001<31.6843 494.754 795.682 1257.32>
CounterMasks: 1 e0
LayerCount: 3
Fore
SplineSet
423.496 1002 m 4
 424.729 1308 508.5 1330 663 1330 c 5
 662.496 1499 l 1
 455.495 1498 253.495 1427 253.495 1027 c 0
 253.495 805 193.495 739 115.495 739 c 1
 115.495 550 l 1
 193.495 550 254.495 486 254.495 262 c 0
 254.495 -138 455.495 -209 662.496 -210 c 1
 663 -41 l 1
 508.5 -41 424.496 -19 424.496 287 c 0
 424.496 520 321.495 615 241.739 644.957 c 1
 321.495 673 422.496 754 423.496 1002 c 4
EndSplineSet
Layer: 2
SplineSet
423.496 982 m 4
 424.729 1288 454.496 1310 532.496 1310 c 5
 662.496 1499 l 5
 455.495 1498 223.495 1427 223.495 1027 c 4
 223.495 805 193.495 739 115.495 739 c 5
 115.495 550 l 5
 193.495 550 224.495 486 224.495 262 c 4
 224.495 -138 455.495 -209 662.496 -210 c 5
 532.496 -21 l 5
 454.496 -21 424.496 1 424.496 307 c 4
 424.496 540 321.495 615 241.739 644.957 c 5
 321.495 673 422.496 734 423.496 982 c 4
EndSplineSet
EndChar

StartChar: asciitilde
Encoding: 126 126 747
Width: 653
Flags: W
HStem: 390 139<480.483 648.271> 509 145<217.149 384.514>
VStem: 53 156<394 506.062> 657 156<533.075 640>
LayerCount: 3
Fore
SplineSet
254 654 m 4x70
 402.619 654 500.309 529 598 529 c 4
 637.333 529 657 566 657 640 c 5
 813 640 l 5
 813 488.667 756.333 400.667 643 390 c 5
 621 390 l 6xb0
 474.468 390 340.136 509 268.111 509 c 4
 232.644 509 209 487.524 209 394 c 5
 53 394 l 5
 53 563.333 120 654 254 654 c 4x70
EndSplineSet
EndChar

StartChar: less
Encoding: 60 60 748
Width: 1507
Flags: W
DStem2: 539 663 333 663 0.735707 -0.6773<0 738.744> 333 663 539 663 0.735707 0.6773<151.556 890.3>
LayerCount: 3
Fore
SplineSet
333 663 m 1
 988 1266 l 1
 1090 1156 l 1
 539 663 l 1
 1090 170 l 5
 988 60 l 1
 333 663 l 1
EndSplineSet
EndChar

StartChar: equal
Encoding: 61 61 749
Width: 864
Flags: W
HStem: 280 131<94 682> 508 131<94 682>
VStem: 94 588<280 411 508 639>
LayerCount: 3
Fore
SplineSet
682 508 m 5
 94 508 l 5
 94 639 l 5
 682 639 l 5
 682 508 l 5
682 280 m 1
 94 280 l 1
 94 411 l 1
 682 411 l 1
 682 280 l 1
EndSplineSet
EndChar

StartChar: sterling
Encoding: 163 163 751
Width: 1058
Flags: W
HStem: 1190 131.85<381.208 756.371>
VStem: 121 174.127<780.121 1103.64> 257 147.699<329.365 576>
LayerCount: 3
Fore
SplineSet
257 577 m 1xa0
 257 418 203.244 300.985 203 299 c 1
 112 116 l 1
 114.99 0 l 1
 915.99 0 l 1
 915.99 122 l 1
 270 122 l 5
 270 122 404.699 300 404.699 576 c 5xa0
 858 576 l 1
 858 672 l 1
 386.613 672 l 5
 388 670 295.127 819 295.127 959 c 4
 295.127 1116 390 1190 554.354 1190 c 0
 722 1190 902.156 1074.76 902.156 1074.76 c 1
 951 1189 l 1
 951 1186 807 1321.85 512.437 1321.85 c 0
 306 1321.85 121 1166 121 956 c 0xc0
 121 811 232 662 232.769 667 c 1
 60 667 l 1
 60 576 l 1
 257 577 l 1xa0
EndSplineSet
EndChar

StartChar: paragraph
Encoding: 182 182 752
Width: 1364
Flags: W
VStem: 177.969 679.031<1083.01 1418.41>
LayerCount: 3
Fore
SplineSet
712.205 1577 m 1
 424.973 1577 177.969 1528.58 177.969 1249.5 c 4
 177.969 982.418 416.777 905.096 667 905.096 c 1
 667 0 l 1
 857 0 l 1
 857 1428 l 1
 992 1428 l 1
 992 0 l 1
 1178 0 l 1
 1178 1578 l 1
 712.205 1577 l 1
EndSplineSet
EndChar

StartChar: multiply
Encoding: 215 215 753
Width: 1265
Flags: W
DStem2: 280.216 964.607 178.393 862.784 0.707108 -0.707105<0 448 592 1040> 178.393 229.216 280.216 127.393 0.707108 0.707105<0.000285923 448 592 1040>
LayerCount: 3
Fore
SplineSet
178.393 862.784 m 1
 280.216 964.607 l 1
 597 647.823 l 1
 913.784 964.607 l 1
 1015.61 862.784 l 1
 698.823 546 l 1
 1015.61 229.216 l 1
 913.784 127.393 l 1
 597 444.177 l 1
 280.216 127.393 l 1
 178.393 229.216 l 1
 495.177 546 l 1
 178.393 862.784 l 1
EndSplineSet
EndChar

StartChar: divide
Encoding: 247 247 755
Width: 864
Flags: W
HStem: 215 230<292.914 467.618> 508 131<94 682> 700 230<294.914 469.618>
VStem: 94 588<508 639> 269 220<238.291 422.003> 271 220<723.291 907.003>
LayerCount: 3
Fore
SplineSet
682 508 m 1xf0
 94 508 l 1
 94 639 l 1
 682 639 l 1
 682 508 l 1xf0
EndSplineSet
Refer: 15 46 N 1 0 0 1 138 717 2
Refer: 15 46 N 1 0 0 1 136 232 2
EndChar

StartChar: onequarter
Encoding: 188 188 756
Width: 1507
Flags: W
HStem: 34.2002 109.6<907 1295 1440 1590.6>
VStem: 281.4 159.6<567.8 1413.4> 1295 145<-226.6 34.2002 145.4 703>
DStem2: 143 -30 263 -123 0.598068 0.801445<0 1737.84> 311 1529.4 281.4 1413.4 0.928261 0.37193<-255.575 -70.6204> 748 143.8 907 143.8 0.575185 0.818023<91.4545 772.065>
LayerCount: 3
Fore
SplineSet
1312.2 946.2 m 1
 1440 915 l 1
 1440 145.4 l 1
 1590.6 145.4 l 1
 1590.6 34.2002 l 1
 1440 34.2002 l 1
 1440 -226.6 l 1
 1295 -249.8 l 1
 1295 34.2002 l 1
 770.399 34.2002 l 1
 748 143.8 l 1
 1312.2 946.2 l 1
907 143.8 m 1
 1295 143.8 l 1
 1295 703 l 1
 1172.6 514.2 l 1
 907 143.8 l 1
281.4 567.8 m 1
 281.4 1413.4 l 1
 111 1341.4 l 1
 73.4004 1434.2 l 1
 311 1529.4 l 1
 441 1503 l 1
 441 567.8 l 1
 281.4 567.8 l 1
143 -30 m 5
 1182 1365 l 5
 1304 1272 l 5
 263 -123 l 5
 143 -30 l 5
EndSplineSet
EndChar

StartChar: onehalf
Encoding: 189 189 757
Width: 1507
Flags: W
HStem: -163.4 121.6<1215 1665.4> 677.399 117.601<1103.76 1499.43>
VStem: 281.4 159.6<567.8 1413.4> 1551 142.4<373.697 626.758>
DStem2: 143 -30 263 -123 0.598068 0.801445<0 1737.84> 311 1529.4 281.4 1413.4 0.928261 0.37193<-255.575 -70.6204> 1203.8 92.5996 1215 -41.7998 0.760231 0.649653<-78.7985 477.659>
LayerCount: 3
Fore
SplineSet
1359 795 m 0
 1623 795 1693.4 639 1693.4 505.399 c 0
 1693.4 427.8 1671 327 1523.8 203 c 0
 1407.8 105.399 1320.6 38.2002 1264.6 -3.40039 c 1
 1215 -41.7998 l 1
 1665.4 -41.7998 l 1
 1665.4 -163.4 l 1
 1039.8 -163.4 l 1
 1039.8 -50.6006 l 1
 1088.6 -5 1143 42.2002 1203.8 92.5996 c 2
 1347.8 212.6 l 1
 1514.2 348.6 1551 423.8 1551 511.8 c 0
 1551 622.2 1481.4 677.399 1341.4 677.399 c 0
 1238.2 677.399 1133.4 646.2 1093.4 628.6 c 1
 1057.4 611.8 l 1
 1057.4 735.8 l 1
 1143 775.8 1253.4 795 1359 795 c 0
281.4 567.8 m 1
 281.4 1413.4 l 1
 111 1341.4 l 1
 73.4004 1434.2 l 1
 311 1529.4 l 1
 441 1503 l 1
 441 567.8 l 1
 281.4 567.8 l 1
143 -30 m 1
 1182 1365 l 1
 1304 1272 l 1
 263 -123 l 1
 143 -30 l 1
EndSplineSet
EndChar

StartChar: threequarters
Encoding: 190 190 758
Width: 1507
Flags: W
HStem: 34.2002 109.6<907 1295 1440 1590.6>
VStem: 281.4 159.6<567.8 1413.4> 1295 145<-226.6 34.2002 145.4 703>
DStem2: 143 -30 263 -123 0.598068 0.801445<0 1737.84> 311 1529.4 281.4 1413.4 0.928261 0.37193<-255.575 -70.6204> 748 143.8 907 143.8 0.575185 0.818023<91.4545 772.065>
LayerCount: 3
Fore
SplineSet
1312.2 946.2 m 1
 1440 915 l 1
 1440 145.4 l 1
 1590.6 145.4 l 1
 1590.6 34.2002 l 1
 1440 34.2002 l 1
 1440 -226.6 l 1
 1295 -249.8 l 1
 1295 34.2002 l 1
 770.399 34.2002 l 1
 748 143.8 l 1
 1312.2 946.2 l 1
907 143.8 m 1
 1295 143.8 l 1
 1295 703 l 1
 1172.6 514.2 l 1
 907 143.8 l 1
281.4 567.8 m 1
 281.4 1413.4 l 1
 111 1341.4 l 1
 73.4004 1434.2 l 1
 311 1529.4 l 1
 441 1503 l 1
 441 567.8 l 1
 281.4 567.8 l 1
143 -30 m 5
 1182 1365 l 5
 1304 1272 l 5
 263 -123 l 5
 143 -30 l 5
EndSplineSet
EndChar

StartChar: NameMe.826
Encoding: 826 -1 759
Width: 1250
Flags: W
HStem: -487 145<338.97 881.202> 1032 154<964.125 1201> 1065 125<418.174 782.596>
VStem: 85 158<-259.545 -22.2265> 141 178<693.288 975.583> 153.448 150.552<263.898 361.276> 879 165<685.701 977.484> 976 178<-258.259 1.00246>
DStem2: 379 259 414 121 0.994554 -0.10422<2.80173 547.499>
LayerCount: 3
Fore
SplineSet
319 834 m 4xaa
 319 673 431 608 596 608 c 4
 777 608 879 660 879 834 c 4
 879 984 779 1065 599 1065 c 4
 430 1065 319 995 319 834 c 4xaa
243 -145 m 4x91
 243 -297 397 -342 593 -342 c 4
 804 -342 976 -323 976 -133 c 4
 976 13 896.916 66.2266 697 88 c 5
 414 121 l 5
 330 68 243 -51 243 -145 c 4x91
668 449 m 6
 369 368 l 5
 326.846 357.621 304 346 304 313 c 4xc6
 304 266 343.841 262.308 379 259 c 6
 713 224 l 6
 910.235 203.332 1154 131 1154 -128 c 4
 1154 -409 901 -487 582 -487 c 4
 318 -487 85 -421 85 -178 c 4xd1
 85 -55 176 89 311 146 c 5
 202.243 167.751 153.448 219.894 153.448 300.195 c 4xc4
 153.448 404.602 218.478 446.078 318 466.434 c 6
 531 510 l 5
 313.45 522 141 641 141 848.5 c 4
 141 1056 336.004 1188.55 603 1190 c 6xa8
 606.266 1190.01 l 6
 788.719 1190.01 895 1107 895 1107 c 5
 974 1146 l 5
 1017 1166 1103 1186 1171 1186 c 6
 1201 1186 l 5
 1201 1032 l 5
 962 1032 l 5
 992 1001 l 5
 1031 944 1044 897 1044 839 c 4xca
 1044 690 971.365 531.183 668 449 c 6
EndSplineSet
EndChar
